<svg id="svg" version="1.1" xmlns="http://www.w3.org/2000/svg" xmlns:xlink="http://www.w3.org/1999/xlink" width="400" height="400" viewBox="0, 0, 400,400"><g id="svgg"><path id="path0" d="M152.800 37.603 C 152.800 37.821,151.915 38.000,150.833 38.000 C 149.752 38.000,148.807 38.178,148.733 38.397 C 148.660 38.615,148.118 38.833,147.529 38.881 C 146.940 38.930,146.545 39.112,146.652 39.285 C 146.760 39.458,146.374 39.600,145.795 39.600 C 145.216 39.600,144.481 39.862,144.160 40.183 C 143.839 40.504,143.312 40.664,142.988 40.540 C 142.665 40.416,142.400 40.514,142.400 40.757 C 142.400 41.001,142.040 41.200,141.600 41.200 C 141.160 41.200,140.800 41.380,140.800 41.600 C 140.800 41.820,140.519 42.000,140.176 42.000 C 139.810 42.000,139.669 42.189,139.836 42.458 C 140.029 42.770,139.807 42.856,139.138 42.729 C 138.211 42.551,137.579 42.897,137.178 43.800 C 137.080 44.020,136.674 44.178,136.276 44.150 C 135.836 44.120,135.631 44.303,135.752 44.619 C 135.891 44.983,135.659 45.085,134.976 44.961 C 134.279 44.835,134.000 44.965,134.000 45.416 C 134.000 45.763,133.820 45.936,133.600 45.800 C 133.380 45.664,133.200 45.844,133.200 46.200 C 133.200 46.556,133.020 46.736,132.800 46.600 C 132.580 46.464,132.400 46.613,132.400 46.932 C 132.400 47.250,132.085 47.486,131.700 47.456 C 131.214 47.417,131.041 47.638,131.136 48.178 C 131.252 48.848,131.182 48.883,130.636 48.430 C 130.098 47.983,130.000 48.005,130.000 48.575 C 130.000 48.945,129.822 49.137,129.605 49.003 C 129.384 48.866,129.307 49.015,129.432 49.339 C 129.554 49.658,129.434 50.055,129.165 50.221 C 128.823 50.433,128.779 50.355,129.018 49.962 C 129.205 49.653,128.800 49.924,128.116 50.564 C 127.414 51.221,126.969 51.974,127.091 52.294 C 127.237 52.673,127.075 52.817,126.600 52.730 C 126.152 52.648,125.847 52.880,125.772 53.360 C 125.707 53.778,125.498 54.228,125.307 54.360 C 125.117 54.492,124.529 55.230,124.000 56.000 C 123.471 56.770,122.714 57.691,122.319 58.047 C 121.924 58.403,121.600 58.898,121.600 59.147 C 121.600 59.396,121.420 59.600,121.200 59.600 C 120.980 59.600,120.800 59.960,120.800 60.400 C 120.800 60.840,120.620 61.200,120.400 61.200 C 120.180 61.200,120.000 61.560,120.000 62.000 C 120.000 62.440,119.801 62.800,119.557 62.800 C 119.314 62.800,119.221 63.077,119.350 63.415 C 119.485 63.765,119.331 64.128,118.993 64.258 C 118.667 64.383,118.400 64.816,118.400 65.219 C 118.400 65.623,118.220 66.064,118.000 66.200 C 117.780 66.336,117.600 66.977,117.600 67.624 C 117.600 68.271,117.420 68.800,117.200 68.800 C 116.980 68.800,116.800 69.239,116.800 69.776 C 116.800 70.313,116.617 70.866,116.393 71.004 C 116.170 71.142,116.095 71.431,116.228 71.645 C 116.361 71.860,116.183 72.471,115.834 73.004 C 115.486 73.536,115.200 74.347,115.200 74.806 C 115.200 75.264,114.937 76.148,114.616 76.769 C 114.295 77.390,114.145 78.011,114.283 78.149 C 114.421 78.287,114.323 78.400,114.067 78.400 C 113.810 78.400,113.600 78.820,113.600 79.333 C 113.600 79.847,113.467 80.400,113.304 80.563 C 112.618 81.249,111.704 85.001,112.151 85.294 C 112.433 85.478,112.340 85.590,111.900 85.594 C 111.515 85.597,111.221 85.735,111.247 85.900 C 111.453 87.204,111.556 87.200,81.024 87.200 C 61.337 87.200,50.761 87.339,50.600 87.600 C 50.464 87.820,49.384 88.000,48.200 88.000 C 47.016 88.000,45.936 88.180,45.800 88.400 C 45.664 88.620,45.023 88.800,44.376 88.800 C 43.729 88.800,43.200 88.980,43.200 89.200 C 43.200 89.420,42.750 89.600,42.200 89.600 C 41.650 89.600,41.200 89.780,41.200 90.000 C 41.200 90.220,40.840 90.400,40.400 90.400 C 39.960 90.400,39.600 90.580,39.600 90.800 C 39.600 91.020,39.150 91.200,38.600 91.200 C 38.050 91.200,37.600 91.380,37.600 91.600 C 37.600 91.820,37.139 92.000,36.576 92.000 C 36.004 92.000,35.660 92.174,35.797 92.395 C 35.937 92.622,35.777 92.689,35.421 92.553 C 35.009 92.394,34.800 92.545,34.800 93.000 C 34.800 93.438,34.588 93.604,34.213 93.460 C 33.875 93.331,33.125 93.736,32.444 94.418 C 31.794 95.068,31.062 95.600,30.818 95.600 C 30.574 95.600,30.271 95.870,30.145 96.200 C 30.018 96.530,29.691 96.800,29.418 96.800 C 28.913 96.800,27.142 98.168,27.154 98.550 C 27.166 98.949,24.426 101.493,24.213 101.280 C 24.096 101.163,24.000 101.249,24.000 101.472 C 24.000 102.056,22.588 103.600,22.053 103.600 C 21.804 103.600,21.600 103.934,21.600 104.342 C 21.600 104.750,21.041 105.547,20.358 106.113 C 19.675 106.678,19.237 107.336,19.384 107.574 C 19.531 107.811,19.369 108.114,19.025 108.246 C 18.681 108.378,18.400 108.736,18.400 109.043 C 18.400 109.349,18.201 109.600,17.957 109.600 C 17.714 109.600,17.618 109.870,17.745 110.200 C 17.885 110.565,17.745 110.800,17.387 110.800 C 17.064 110.800,16.834 110.935,16.876 111.100 C 17.045 111.766,16.312 113.975,15.774 114.421 C 15.458 114.683,15.200 115.247,15.200 115.673 C 15.200 116.099,15.020 116.336,14.800 116.200 C 14.561 116.053,14.400 116.537,14.400 117.400 C 14.400 118.196,14.258 118.760,14.085 118.652 C 13.912 118.545,13.732 118.911,13.686 119.465 C 13.641 120.018,13.472 120.680,13.311 120.936 C 13.151 121.191,12.965 122.210,12.900 123.200 C 12.834 124.190,12.606 125.059,12.394 125.132 C 11.818 125.329,11.863 321.797,12.440 322.875 C 12.682 323.327,12.720 323.598,12.526 323.478 C 12.331 323.357,12.171 323.592,12.171 324.000 C 12.171 324.408,12.313 324.654,12.486 324.547 C 12.659 324.440,12.827 325.038,12.859 325.876 C 12.961 328.497,12.992 328.720,13.300 329.031 C 13.465 329.197,13.600 329.644,13.600 330.024 C 13.600 330.404,13.852 330.811,14.160 330.929 C 14.554 331.080,14.661 331.581,14.521 332.620 C 14.385 333.630,14.460 334.010,14.761 333.824 C 15.011 333.670,15.200 333.833,15.200 334.203 C 15.200 334.561,15.695 335.507,16.300 336.307 C 16.905 337.106,17.157 337.612,16.860 337.432 C 16.429 337.170,16.406 337.264,16.746 337.899 C 16.980 338.337,17.043 338.837,16.886 339.011 C 16.729 339.185,16.895 339.222,17.255 339.094 C 17.750 338.917,17.860 339.048,17.708 339.630 C 17.597 340.053,17.708 340.400,17.953 340.400 C 18.199 340.400,18.400 340.670,18.400 341.000 C 18.400 341.330,18.681 341.600,19.024 341.600 C 19.367 341.600,19.545 341.765,19.421 341.966 C 19.297 342.167,19.421 342.423,19.698 342.534 C 20.076 342.687,20.066 342.745,19.658 342.768 C 19.352 342.786,19.701 343.348,20.458 344.057 C 21.196 344.748,21.747 345.558,21.682 345.857 C 21.618 346.156,21.766 346.400,22.011 346.400 C 22.256 346.400,22.727 346.670,23.057 347.000 C 23.387 347.330,23.547 347.600,23.413 347.600 C 23.278 347.600,23.401 347.853,23.684 348.162 C 23.968 348.471,24.290 348.719,24.400 348.714 C 25.228 348.677,25.600 348.881,25.600 349.373 C 25.600 349.688,26.140 350.330,26.800 350.800 C 27.460 351.270,28.000 351.923,28.000 352.251 C 28.000 352.579,28.180 352.736,28.400 352.600 C 28.620 352.464,28.800 352.554,28.800 352.800 C 28.800 353.046,28.961 353.148,29.157 353.026 C 29.354 352.905,29.933 353.331,30.444 353.973 C 30.955 354.615,31.495 355.065,31.645 354.972 C 31.794 354.880,32.019 355.074,32.146 355.402 C 32.272 355.731,32.751 356.000,33.211 356.000 C 33.671 356.000,33.946 356.163,33.823 356.363 C 33.700 356.562,33.987 356.624,34.462 356.500 C 35.008 356.357,35.230 356.428,35.066 356.693 C 34.740 357.220,37.446 358.542,38.066 358.159 C 38.348 357.985,38.414 358.054,38.238 358.338 C 38.050 358.642,38.310 358.800,39.000 358.800 C 39.576 358.800,39.948 358.960,39.827 359.156 C 39.706 359.352,40.230 359.629,40.991 359.772 C 41.752 359.915,42.644 360.301,42.973 360.630 C 43.313 360.970,44.351 361.244,45.378 361.265 C 46.372 361.285,47.088 361.458,46.969 361.651 C 46.850 361.843,47.393 362.000,48.176 362.000 C 48.959 362.000,49.600 362.180,49.600 362.399 C 49.600 362.664,100.130 362.798,199.600 362.798 C 319.159 362.798,349.601 362.697,349.606 362.299 C 349.610 361.968,349.743 362.002,350.000 362.400 C 350.258 362.800,350.390 362.833,350.394 362.500 C 350.398 362.195,350.955 362.000,351.824 362.000 C 352.607 362.000,353.150 361.843,353.031 361.651 C 352.912 361.458,353.656 361.284,354.684 361.264 C 355.863 361.240,356.673 361.013,356.876 360.650 C 357.063 360.315,357.533 360.162,357.999 360.284 C 358.447 360.401,358.800 360.297,358.800 360.047 C 358.800 359.801,359.160 359.600,359.600 359.600 C 360.040 359.600,360.401 359.465,360.403 359.300 C 360.407 358.882,362.397 358.000,363.336 358.000 C 363.763 358.000,364.342 357.685,364.624 357.300 C 364.905 356.915,365.285 356.591,365.468 356.580 C 366.532 356.517,367.632 355.861,367.453 355.395 C 367.305 355.007,367.540 354.915,368.315 355.055 C 368.902 355.162,369.266 355.132,369.124 354.991 C 368.779 354.645,370.042 353.200,370.689 353.200 C 370.970 353.200,371.200 353.009,371.200 352.776 C 371.200 352.543,371.353 352.447,371.540 352.563 C 371.727 352.678,372.114 352.335,372.400 351.800 C 372.686 351.265,373.058 350.912,373.226 351.016 C 373.394 351.120,373.757 350.694,374.033 350.070 C 374.309 349.446,375.045 348.710,375.668 348.434 C 376.290 348.158,376.800 347.678,376.800 347.366 C 376.800 347.055,376.980 346.800,377.200 346.800 C 377.420 346.800,377.600 346.530,377.600 346.200 C 377.600 345.870,377.735 345.599,377.900 345.597 C 378.065 345.596,378.648 344.921,379.195 344.097 C 379.742 343.274,380.507 342.309,380.895 341.953 C 381.684 341.229,381.852 340.597,381.138 341.038 C 380.852 341.215,380.785 341.148,380.962 340.862 C 381.119 340.608,381.507 340.400,381.824 340.400 C 382.141 340.400,382.358 340.265,382.308 340.100 C 382.196 339.737,384.022 335.885,384.444 335.594 C 384.608 335.481,384.710 335.031,384.671 334.594 C 384.631 334.145,384.817 333.843,385.100 333.900 C 385.411 333.962,385.600 333.547,385.600 332.800 C 385.600 332.110,385.812 331.597,386.100 331.594 C 386.433 331.590,386.400 331.458,386.000 331.200 C 385.573 330.924,385.549 330.810,385.918 330.806 C 386.202 330.803,386.406 330.575,386.370 330.300 C 386.229 329.215,386.418 328.364,386.753 328.571 C 386.947 328.691,387.116 328.058,387.128 327.165 C 387.141 326.272,387.387 325.250,387.675 324.894 C 388.062 324.417,388.068 324.326,387.700 324.547 C 387.385 324.736,387.200 324.616,387.200 324.224 C 387.200 323.881,387.377 323.600,387.594 323.600 C 388.141 323.600,388.146 126.537,387.598 126.199 C 387.379 126.064,387.200 125.773,387.200 125.553 C 387.200 125.333,387.425 125.288,387.700 125.453 C 388.068 125.674,388.062 125.583,387.675 125.106 C 387.387 124.750,387.141 123.728,387.128 122.835 C 387.116 121.942,386.966 121.297,386.795 121.403 C 386.352 121.677,386.071 120.756,386.210 119.486 C 386.276 118.889,386.165 118.400,385.965 118.400 C 385.764 118.400,385.600 117.849,385.600 117.176 C 385.600 116.463,385.433 116.056,385.200 116.200 C 384.980 116.336,384.798 116.212,384.796 115.924 C 384.794 115.636,384.359 114.504,383.829 113.409 C 383.299 112.314,382.939 111.298,383.030 111.151 C 383.121 111.004,382.915 110.776,382.572 110.645 C 382.230 110.513,382.061 110.224,382.198 110.003 C 382.335 109.781,382.257 109.600,382.024 109.600 C 381.791 109.600,381.597 109.285,381.594 108.900 C 381.589 108.302,381.531 108.287,381.200 108.800 C 380.884 109.289,380.811 109.240,380.806 108.533 C 380.803 108.057,380.575 107.576,380.300 107.465 C 379.924 107.313,379.934 107.255,380.338 107.232 C 380.634 107.214,380.122 106.570,379.200 105.800 C 378.278 105.030,377.721 104.400,377.962 104.400 C 378.715 104.400,378.440 103.704,377.600 103.484 C 377.160 103.369,376.800 103.027,376.800 102.724 C 376.800 102.421,376.260 101.854,375.600 101.464 C 374.940 101.074,374.400 100.572,374.400 100.349 C 374.400 99.925,373.152 98.526,372.929 98.700 C 372.858 98.755,372.765 98.665,372.722 98.500 C 372.556 97.857,371.780 97.310,371.298 97.495 C 370.952 97.627,370.878 97.463,371.065 96.975 C 371.277 96.421,371.189 96.319,370.669 96.518 C 370.235 96.685,370.000 96.573,370.000 96.200 C 370.000 95.872,369.760 95.717,369.440 95.840 C 369.133 95.958,368.745 95.834,368.579 95.565 C 368.385 95.253,368.443 95.179,368.738 95.362 C 368.992 95.519,369.200 95.469,369.200 95.251 C 369.200 94.853,367.663 94.172,367.100 94.321 C 366.935 94.364,366.800 94.209,366.800 93.976 C 366.800 93.743,366.620 93.664,366.400 93.800 C 366.180 93.936,366.000 93.827,366.000 93.557 C 366.000 93.287,365.881 93.186,365.736 93.331 C 365.591 93.476,365.214 93.227,364.900 92.778 C 364.585 92.329,364.029 92.009,363.664 92.067 C 362.892 92.190,360.400 91.148,360.400 90.702 C 360.400 90.536,359.894 90.400,359.275 90.400 C 358.657 90.400,357.764 90.040,357.292 89.600 C 356.375 88.745,355.789 88.535,356.206 89.210 C 356.345 89.435,355.811 89.255,355.018 88.810 C 354.160 88.328,352.842 88.000,351.764 88.000 C 350.688 88.000,350.051 87.842,350.194 87.610 C 350.350 87.357,339.596 87.214,319.738 87.205 C 289.124 87.191,287.895 87.140,288.650 85.919 C 288.758 85.744,288.696 85.600,288.511 85.600 C 288.326 85.600,288.134 85.115,288.085 84.522 C 288.036 83.930,287.862 83.345,287.698 83.222 C 287.534 83.100,287.346 82.640,287.281 82.200 C 287.085 80.885,286.824 80.338,286.491 80.544 C 286.318 80.651,286.200 80.257,286.228 79.669 C 286.279 78.621,285.676 76.795,285.149 76.400 C 285.003 76.290,284.819 75.750,284.741 75.200 C 284.664 74.650,284.466 74.100,284.301 73.977 C 284.137 73.855,283.936 73.182,283.854 72.482 C 283.773 71.782,283.487 70.945,283.219 70.622 C 282.950 70.299,282.820 69.891,282.929 69.715 C 283.038 69.539,282.783 68.689,282.363 67.826 C 281.943 66.963,281.600 65.839,281.600 65.329 C 281.600 64.740,281.363 64.400,280.953 64.400 C 280.503 64.400,280.370 64.156,280.516 63.599 C 280.631 63.159,280.562 62.900,280.363 63.023 C 280.163 63.146,280.000 62.787,280.000 62.224 C 280.000 61.661,279.820 61.200,279.600 61.200 C 279.380 61.200,279.200 60.840,279.200 60.400 C 279.200 59.960,279.020 59.600,278.800 59.600 C 278.580 59.600,278.400 59.370,278.400 59.088 C 278.400 58.807,278.040 58.317,277.600 58.000 C 277.160 57.683,276.800 57.211,276.800 56.952 C 276.800 56.692,276.157 55.837,275.370 55.050 C 274.584 54.264,274.047 53.448,274.177 53.238 C 274.307 53.027,274.202 52.725,273.945 52.566 C 273.652 52.385,273.584 52.450,273.762 52.738 C 273.919 52.992,273.857 53.200,273.624 53.200 C 273.391 53.200,273.200 52.756,273.200 52.213 C 273.200 51.552,273.023 51.293,272.664 51.431 C 272.369 51.544,271.874 51.324,271.564 50.941 C 271.073 50.337,271.078 50.287,271.600 50.555 C 271.930 50.725,271.692 50.397,271.071 49.827 C 270.450 49.256,269.788 48.884,269.599 49.001 C 269.410 49.118,269.142 49.030,269.004 48.807 C 268.866 48.583,269.073 48.400,269.465 48.400 C 270.073 48.400,270.047 48.308,269.288 47.777 C 268.799 47.434,268.264 47.226,268.099 47.313 C 267.707 47.523,266.397 46.137,266.700 45.833 C 266.828 45.705,266.623 45.600,266.243 45.600 C 265.863 45.600,265.664 45.420,265.800 45.200 C 265.936 44.980,265.677 44.800,265.224 44.800 C 264.771 44.800,264.399 44.665,264.397 44.500 C 264.393 44.141,262.456 43.200,261.720 43.200 C 261.434 43.200,261.200 43.026,261.200 42.813 C 261.200 42.599,260.946 42.522,260.636 42.641 C 260.297 42.772,259.967 42.527,259.809 42.029 C 259.638 41.490,259.206 41.200,258.573 41.200 C 258.038 41.200,257.600 41.020,257.600 40.800 C 257.600 40.580,257.071 40.400,256.424 40.400 C 255.777 40.400,255.136 40.220,255.000 40.000 C 254.864 39.780,254.439 39.600,254.056 39.600 C 253.181 39.600,251.207 38.701,251.203 38.300 C 251.201 38.135,250.300 38.000,249.200 38.000 C 248.100 38.000,247.200 37.821,247.200 37.603 C 247.200 37.343,230.937 37.207,200.000 37.207 C 169.063 37.207,152.800 37.343,152.800 37.603 M238.800 63.176 C 238.800 63.382,239.713 63.498,240.829 63.433 C 241.958 63.368,243.067 63.516,243.329 63.767 C 243.588 64.016,244.115 64.237,244.500 64.260 C 246.209 64.358,246.435 64.419,246.245 64.727 C 246.045 65.051,248.722 66.238,249.300 66.081 C 249.465 66.037,249.600 66.180,249.600 66.400 C 249.600 66.620,249.858 66.800,250.173 66.800 C 250.488 66.800,250.860 67.160,251.000 67.600 C 251.234 68.337,251.686 68.584,252.530 68.437 C 252.711 68.406,252.757 68.546,252.632 68.748 C 252.507 68.951,252.674 69.219,253.002 69.346 C 253.331 69.472,253.600 69.870,253.600 70.230 C 253.600 70.631,253.820 70.801,254.167 70.668 C 254.479 70.548,254.837 70.718,254.962 71.046 C 255.110 71.431,255.016 71.553,254.695 71.391 C 254.423 71.253,254.486 71.379,254.835 71.670 C 255.184 71.962,255.394 72.425,255.302 72.700 C 255.209 72.975,255.328 73.200,255.567 73.200 C 255.805 73.200,256.000 73.388,256.000 73.617 C 256.000 73.846,256.360 74.420,256.800 74.892 C 257.272 75.399,257.600 76.304,257.600 77.099 C 257.600 77.896,257.764 78.346,258.000 78.200 C 258.238 78.053,258.400 78.529,258.400 79.376 C 258.400 80.159,258.570 80.800,258.777 80.800 C 258.984 80.800,259.085 81.160,259.000 81.600 C 258.915 82.040,259.026 82.400,259.247 82.400 C 259.467 82.400,259.536 82.580,259.400 82.800 C 259.264 83.020,259.343 83.200,259.576 83.200 C 259.809 83.200,260.000 83.560,260.000 84.000 C 260.000 84.440,260.155 84.800,260.345 84.800 C 260.535 84.800,260.641 85.250,260.580 85.800 C 260.503 86.501,260.669 86.808,261.135 86.828 C 261.672 86.851,261.651 86.914,261.027 87.159 C 260.495 87.367,260.401 87.553,260.727 87.755 C 260.987 87.916,261.200 88.481,261.200 89.011 C 261.200 89.618,261.385 89.904,261.700 89.783 C 262.041 89.652,262.188 90.004,262.162 90.886 C 262.141 91.598,262.372 92.429,262.675 92.733 C 262.996 93.054,263.120 93.622,262.971 94.092 C 262.800 94.630,262.863 94.809,263.157 94.626 C 263.409 94.471,263.600 94.624,263.600 94.982 C 263.600 95.328,263.808 96.013,264.062 96.505 C 265.333 98.963,265.465 99.411,264.800 99.000 C 264.580 98.864,264.400 98.943,264.400 99.176 C 264.400 99.409,264.535 99.601,264.700 99.603 C 264.865 99.605,265.208 100.055,265.463 100.604 C 265.717 101.152,265.762 101.500,265.563 101.377 C 265.363 101.254,265.200 101.324,265.200 101.534 C 265.200 101.743,265.456 102.013,265.769 102.133 C 266.117 102.266,266.254 102.671,266.122 103.176 C 266.000 103.645,266.099 104.000,266.353 104.000 C 266.599 104.000,266.800 104.360,266.800 104.800 C 266.800 105.240,266.980 105.600,267.200 105.600 C 267.420 105.600,267.600 105.870,267.600 106.200 C 267.600 106.530,267.780 106.800,268.000 106.800 C 268.220 106.800,268.400 107.070,268.400 107.400 C 268.400 107.730,268.580 108.000,268.800 108.000 C 269.020 108.000,269.200 108.258,269.200 108.573 C 269.200 108.888,269.560 109.260,270.000 109.400 C 270.440 109.540,270.800 109.822,270.800 110.027 C 270.800 110.232,271.205 110.403,271.700 110.406 C 272.318 110.410,272.439 110.514,272.087 110.738 C 271.738 110.959,272.091 111.234,273.187 111.596 C 274.074 111.888,274.800 112.275,274.800 112.455 C 274.800 112.635,289.866 112.788,308.279 112.795 C 328.565 112.804,341.849 112.956,341.989 113.182 C 342.242 113.592,343.133 113.544,343.872 113.082 C 344.132 112.920,344.465 112.982,344.613 113.221 C 344.760 113.459,345.128 113.560,345.429 113.444 C 345.730 113.329,346.251 113.508,346.585 113.842 C 346.920 114.177,347.343 114.359,347.526 114.246 C 347.708 114.133,348.339 114.291,348.929 114.597 C 349.518 114.902,350.003 115.028,350.006 114.876 C 350.009 114.724,350.184 114.870,350.393 115.200 C 350.602 115.530,351.004 115.824,351.287 115.854 C 351.569 115.883,352.070 115.931,352.400 115.960 C 352.933 116.006,352.933 116.055,352.400 116.400 C 351.934 116.701,352.051 116.789,352.924 116.794 C 353.542 116.797,353.974 116.935,353.884 117.100 C 353.794 117.265,354.316 117.962,355.044 118.650 C 355.822 119.385,356.443 119.714,356.552 119.450 C 356.654 119.202,356.751 119.315,356.768 119.700 C 356.786 120.085,356.980 120.400,357.200 120.400 C 357.420 120.400,357.600 120.630,357.600 120.912 C 357.600 121.193,357.960 121.683,358.400 122.000 C 358.840 122.317,359.200 122.906,359.200 123.308 C 359.200 123.711,359.507 124.616,359.882 125.320 C 360.257 126.024,360.525 126.742,360.477 126.916 C 360.429 127.090,360.584 127.596,360.822 128.041 C 361.060 128.486,361.270 129.373,361.288 130.011 C 361.308 130.730,361.488 131.079,361.760 130.928 C 362.002 130.793,361.975 130.925,361.700 131.221 C 361.425 131.518,361.200 131.994,361.200 132.280 C 361.200 132.566,361.425 132.800,361.700 132.800 C 362.099 132.800,362.200 151.507,362.200 225.000 C 362.200 298.493,362.099 317.200,361.700 317.200 C 361.056 317.200,361.056 318.085,361.700 318.779 C 361.975 319.075,362.002 319.207,361.760 319.072 C 361.488 318.921,361.308 319.270,361.288 319.989 C 361.270 320.627,361.048 321.537,360.795 322.009 C 360.542 322.482,360.438 322.972,360.564 323.097 C 360.690 323.223,360.592 323.569,360.346 323.866 C 360.099 324.162,359.771 324.989,359.615 325.702 C 359.445 326.485,359.121 326.951,358.799 326.877 C 358.365 326.778,358.368 326.890,358.819 327.477 C 359.124 327.875,359.223 328.074,359.039 327.919 C 358.659 327.600,357.600 328.522,357.600 329.171 C 357.600 329.407,357.420 329.600,357.200 329.600 C 356.980 329.600,356.797 329.915,356.794 330.300 C 356.789 330.898,356.731 330.913,356.400 330.400 C 356.069 329.887,356.011 329.902,356.006 330.500 C 356.003 330.885,355.848 331.200,355.661 331.200 C 355.097 331.200,353.596 332.662,353.874 332.941 C 354.092 333.159,353.449 333.274,352.570 333.174 C 352.443 333.159,352.017 333.519,351.623 333.974 C 351.229 334.428,350.537 334.800,350.086 334.800 C 349.636 334.800,349.204 334.988,349.127 335.218 C 349.051 335.448,348.541 335.664,347.994 335.699 C 347.447 335.733,346.907 335.892,346.794 336.052 C 346.681 336.211,345.867 336.409,344.985 336.491 C 344.103 336.573,343.161 336.777,342.891 336.944 C 342.601 337.123,342.387 337.033,342.368 336.724 C 342.344 336.321,342.290 336.315,342.135 336.700 C 341.838 337.436,58.015 337.436,57.968 336.700 C 57.944 336.317,57.888 336.321,57.730 336.717 C 57.570 337.113,57.392 337.125,56.961 336.768 C 56.526 336.407,56.399 336.425,56.394 336.851 C 56.389 337.310,56.330 337.309,56.035 336.843 C 55.827 336.514,55.334 336.376,54.834 336.507 C 54.350 336.633,53.732 336.475,53.396 336.139 C 53.072 335.814,52.617 335.666,52.385 335.809 C 52.154 335.952,51.518 335.776,50.971 335.418 C 50.425 335.060,49.798 334.878,49.579 335.013 C 49.360 335.149,49.230 335.021,49.290 334.730 C 49.357 334.407,48.943 334.148,48.230 334.067 C 47.356 333.967,47.205 333.842,47.630 333.573 C 48.092 333.281,48.063 333.211,47.481 333.206 C 47.086 333.203,45.941 332.390,44.936 331.400 C 43.932 330.410,42.850 329.600,42.532 329.600 C 42.213 329.600,42.056 329.432,42.183 329.228 C 42.309 329.023,42.230 328.742,42.007 328.604 C 41.783 328.466,41.600 327.993,41.600 327.553 C 41.600 327.113,41.420 326.864,41.200 327.000 C 40.980 327.136,40.800 326.958,40.800 326.604 C 40.800 326.250,40.493 325.384,40.118 324.680 C 39.743 323.976,39.475 323.258,39.523 323.084 C 39.571 322.910,39.390 322.370,39.120 321.884 C 38.851 321.398,38.671 320.858,38.720 320.684 C 38.770 320.510,38.610 319.993,38.365 319.536 C 38.046 318.938,38.044 318.780,38.360 318.975 C 38.611 319.130,38.800 318.969,38.800 318.600 C 38.800 318.189,38.618 318.062,38.300 318.253 C 37.925 318.478,37.930 318.393,38.319 317.912 C 38.669 317.481,38.701 317.186,38.419 317.012 C 37.830 316.648,37.830 133.352,38.419 132.988 C 38.701 132.814,38.669 132.519,38.319 132.088 C 37.930 131.607,37.925 131.522,38.300 131.747 C 38.948 132.136,38.964 131.124,38.320 130.480 C 37.947 130.107,37.951 130.000,38.338 130.000 C 38.611 130.000,38.789 129.775,38.734 129.500 C 38.678 129.225,38.852 128.602,39.121 128.116 C 39.391 127.630,39.571 127.090,39.523 126.916 C 39.475 126.742,39.746 126.017,40.126 125.304 C 40.506 124.591,40.813 123.916,40.808 123.804 C 40.774 122.940,40.850 122.784,41.200 123.000 C 41.420 123.136,41.600 122.908,41.600 122.494 C 41.600 121.741,41.915 121.358,44.234 119.297 C 44.913 118.694,45.393 117.975,45.301 117.700 C 45.194 117.382,45.364 117.288,45.767 117.443 C 46.115 117.576,46.400 117.499,46.400 117.270 C 46.400 117.041,46.973 116.447,47.672 115.949 C 48.372 115.450,48.811 115.258,48.649 115.521 C 48.486 115.785,48.534 116.000,48.757 116.000 C 48.979 116.000,49.344 115.685,49.568 115.300 C 49.792 114.915,49.981 114.763,49.988 114.962 C 49.995 115.161,50.360 114.998,50.800 114.600 C 51.240 114.202,51.600 114.016,51.600 114.187 C 51.600 114.358,51.905 114.251,52.277 113.949 C 52.737 113.576,52.857 113.560,52.653 113.900 C 52.488 114.175,52.528 114.400,52.743 114.400 C 52.958 114.400,53.193 114.226,53.267 114.013 C 53.340 113.800,53.999 113.580,54.730 113.525 C 55.462 113.470,56.153 113.276,56.266 113.093 C 56.379 112.911,56.754 112.995,57.101 113.281 C 57.599 113.692,57.765 113.696,57.898 113.300 C 58.031 112.905,65.056 112.800,91.233 112.800 C 113.078 112.800,124.400 112.663,124.400 112.400 C 124.400 112.180,124.953 112.000,125.629 112.000 C 126.304 112.000,127.094 111.775,127.384 111.500 C 128.412 110.524,129.548 109.656,130.378 109.212 C 130.840 108.964,131.527 108.050,131.904 107.181 C 132.281 106.311,132.726 105.600,132.894 105.600 C 133.062 105.600,133.200 105.409,133.200 105.176 C 133.200 104.943,133.007 104.872,132.770 105.018 C 132.533 105.165,132.569 104.918,132.851 104.468 C 133.131 104.019,133.504 103.741,133.680 103.849 C 133.856 103.958,134.000 103.587,134.000 103.024 C 134.000 102.461,134.180 102.000,134.400 102.000 C 134.620 102.000,134.800 101.809,134.800 101.576 C 134.800 101.343,134.575 101.288,134.300 101.453 C 133.960 101.657,133.976 101.537,134.349 101.077 C 134.651 100.705,134.741 100.394,134.549 100.387 C 134.357 100.380,134.560 100.090,135.000 99.741 C 135.535 99.318,135.639 99.048,135.314 98.926 C 134.995 98.805,134.949 98.514,135.181 98.071 C 135.375 97.702,135.750 96.815,136.015 96.100 C 136.280 95.385,136.655 94.800,136.849 94.800 C 137.042 94.800,137.200 94.609,137.200 94.376 C 137.200 94.143,137.019 94.065,136.797 94.202 C 136.564 94.346,136.591 94.019,136.861 93.425 C 137.118 92.861,137.503 92.400,137.717 92.400 C 137.939 92.400,138.005 91.786,137.872 90.965 C 137.678 89.773,137.745 89.570,138.264 89.769 C 138.689 89.932,138.820 89.830,138.675 89.450 C 138.557 89.143,138.748 88.481,139.099 87.980 C 139.451 87.478,139.527 87.198,139.269 87.357 C 139.011 87.517,138.800 87.457,138.800 87.224 C 138.800 86.991,138.942 86.800,139.115 86.800 C 139.288 86.800,139.458 86.424,139.493 85.965 C 139.527 85.506,139.934 84.403,140.398 83.515 C 141.170 82.034,141.180 81.920,140.520 82.151 C 139.888 82.371,139.895 82.328,140.576 81.801 C 141.004 81.470,141.184 81.197,140.976 81.194 C 140.769 81.191,140.809 81.055,141.063 80.893 C 141.318 80.731,141.613 79.968,141.717 79.199 C 141.981 77.264,142.427 76.000,142.847 76.000 C 143.041 76.000,143.200 75.616,143.200 75.147 C 143.200 74.678,143.588 73.958,144.061 73.547 C 144.645 73.041,144.741 72.795,144.361 72.786 C 144.053 72.778,144.250 72.514,144.800 72.200 C 145.350 71.886,145.656 71.622,145.480 71.614 C 144.916 71.589,147.241 68.841,148.041 68.587 C 148.465 68.452,148.708 68.175,148.582 67.971 C 148.456 67.767,148.633 67.600,148.976 67.600 C 149.319 67.600,149.600 67.433,149.600 67.229 C 149.600 67.025,150.320 66.540,151.200 66.152 C 152.080 65.764,152.800 65.306,152.800 65.136 C 152.800 64.965,153.100 64.940,153.466 65.081 C 153.913 65.252,154.036 65.183,153.842 64.868 C 153.565 64.420,153.722 64.362,155.500 64.260 C 155.885 64.237,156.399 64.028,156.643 63.795 C 156.886 63.562,158.011 63.410,159.143 63.457 C 160.274 63.504,161.200 63.376,161.200 63.171 C 161.200 62.945,176.386 62.800,200.000 62.800 C 223.931 62.800,238.800 62.944,238.800 63.176 M187.600 125.100 C 187.600 125.265,186.776 125.396,185.768 125.390 C 184.760 125.385,183.854 125.512,183.755 125.673 C 183.656 125.834,183.310 125.864,182.987 125.740 C 182.664 125.616,182.400 125.694,182.400 125.913 C 182.400 126.141,181.775 126.228,180.939 126.115 C 179.860 125.970,179.382 126.088,179.114 126.568 C 178.914 126.925,178.587 127.116,178.387 126.992 C 178.187 126.868,177.523 127.020,176.912 127.328 C 176.300 127.637,175.305 127.818,174.699 127.731 C 174.094 127.644,173.194 127.796,172.699 128.068 C 172.205 128.341,171.501 128.518,171.135 128.463 C 170.770 128.407,170.354 128.550,170.212 128.781 C 170.069 129.011,169.596 129.200,169.160 129.200 C 168.723 129.200,167.980 129.560,167.507 130.001 C 166.856 130.607,166.571 130.680,166.330 130.301 C 166.076 129.901,166.011 129.900,166.006 130.300 C 166.003 130.575,165.544 130.800,164.987 130.800 C 164.431 130.800,163.872 131.069,163.746 131.398 C 163.619 131.726,163.370 131.905,163.190 131.794 C 163.011 131.683,162.580 131.877,162.232 132.225 C 161.885 132.573,161.600 132.732,161.600 132.580 C 161.600 132.427,161.295 132.549,160.923 132.851 C 160.340 133.324,160.294 133.317,160.592 132.800 C 160.838 132.373,160.706 132.402,160.136 132.901 C 159.696 133.286,159.213 133.479,159.063 133.330 C 158.914 133.181,158.551 133.388,158.257 133.790 C 157.962 134.193,157.533 134.406,157.303 134.263 C 157.072 134.121,156.776 134.285,156.645 134.628 C 156.513 134.970,156.224 135.139,156.003 135.002 C 155.781 134.865,155.600 135.028,155.600 135.364 C 155.600 135.743,155.372 135.887,155.000 135.745 C 154.670 135.618,154.400 135.714,154.400 135.957 C 154.400 136.201,154.119 136.400,153.776 136.400 C 153.433 136.400,153.267 136.584,153.406 136.810 C 153.545 137.035,153.511 137.194,153.330 137.163 C 152.528 137.023,151.089 137.223,151.309 137.443 C 151.687 137.821,150.664 138.723,150.102 138.507 C 149.826 138.401,149.600 138.524,149.600 138.781 C 149.600 139.037,149.420 139.136,149.200 139.000 C 148.980 138.864,148.800 138.943,148.800 139.176 C 148.800 139.409,148.395 139.603,147.900 139.606 C 147.172 139.611,147.115 139.686,147.600 140.000 C 148.142 140.350,147.919 140.482,146.970 140.374 C 146.843 140.359,146.420 140.716,146.029 141.166 C 145.638 141.617,145.202 141.869,145.059 141.726 C 144.917 141.583,144.800 141.687,144.800 141.957 C 144.800 142.227,144.620 142.336,144.400 142.200 C 144.180 142.064,144.000 142.223,144.000 142.553 C 144.000 142.883,143.792 143.281,143.538 143.438 C 143.238 143.623,143.186 143.547,143.387 143.220 C 143.559 142.944,143.217 143.032,142.629 143.418 C 142.006 143.826,141.650 144.353,141.775 144.680 C 141.894 144.989,141.827 145.141,141.628 145.017 C 141.428 144.894,140.980 145.077,140.632 145.425 C 140.285 145.773,139.995 145.909,139.988 145.729 C 139.981 145.548,139.790 145.719,139.563 146.108 C 139.336 146.498,138.984 146.714,138.780 146.588 C 138.576 146.462,138.511 146.625,138.636 146.950 C 138.806 147.393,138.629 147.498,137.932 147.366 C 137.419 147.270,137.225 147.298,137.500 147.429 C 138.293 147.806,138.080 148.370,137.208 148.202 C 136.773 148.118,136.458 148.173,136.508 148.325 C 136.559 148.476,136.497 148.600,136.371 148.600 C 135.964 148.600,134.800 149.930,134.800 150.395 C 134.800 150.644,134.622 150.737,134.405 150.603 C 134.169 150.457,134.116 150.638,134.274 151.049 C 134.475 151.571,134.381 151.678,133.890 151.490 C 133.411 151.306,133.306 151.410,133.488 151.886 C 133.654 152.318,133.580 152.435,133.265 152.240 C 132.831 151.972,131.534 152.875,131.600 153.400 C 131.616 153.526,131.352 153.905,131.014 154.243 C 130.676 154.581,130.400 154.747,130.400 154.613 C 130.400 154.478,130.150 154.601,129.844 154.884 C 129.442 155.258,129.414 155.481,129.744 155.694 C 130.010 155.865,129.807 155.990,129.257 155.994 C 128.574 155.998,128.380 156.170,128.550 156.615 C 128.685 156.965,128.531 157.328,128.196 157.457 C 127.871 157.582,127.704 157.845,127.826 158.042 C 127.948 158.239,127.817 158.400,127.536 158.400 C 126.884 158.400,125.332 160.200,124.532 161.887 C 124.191 162.605,123.752 163.094,123.556 162.973 C 123.360 162.852,123.200 163.033,123.200 163.376 C 123.200 163.719,123.020 164.000,122.800 164.000 C 122.580 164.000,122.400 164.260,122.400 164.577 C 122.400 164.895,122.027 165.416,121.572 165.735 C 120.969 166.157,120.887 166.372,121.272 166.526 C 121.664 166.683,121.671 166.745,121.300 166.768 C 121.025 166.786,120.800 167.005,120.800 167.256 C 120.800 167.507,120.485 167.942,120.100 168.224 C 119.715 168.505,119.378 168.930,119.350 169.168 C 119.322 169.405,119.278 169.791,119.250 170.024 C 119.222 170.257,118.989 170.317,118.732 170.158 C 118.419 169.964,118.347 170.085,118.515 170.524 C 118.664 170.912,118.514 171.320,118.148 171.525 C 117.807 171.716,117.544 171.991,117.564 172.136 C 117.703 173.159,117.543 173.612,117.132 173.358 C 116.817 173.164,116.748 173.287,116.919 173.734 C 117.089 174.176,116.969 174.400,116.564 174.400 C 116.228 174.400,116.065 174.581,116.202 174.803 C 116.339 175.024,116.159 175.318,115.802 175.454 C 115.446 175.591,115.244 175.937,115.353 176.222 C 115.463 176.508,115.279 176.969,114.944 177.246 C 114.608 177.526,114.412 178.148,114.505 178.639 C 114.632 179.302,114.523 179.468,114.073 179.296 C 113.613 179.119,113.526 179.275,113.705 179.957 C 113.850 180.513,113.736 180.926,113.402 181.055 C 113.107 181.168,112.653 182.147,112.393 183.230 C 112.133 184.314,111.756 185.200,111.554 185.200 C 111.353 185.200,111.284 185.785,111.401 186.500 C 111.552 187.418,111.501 187.627,111.229 187.211 C 110.764 186.501,110.136 187.649,110.588 188.381 C 110.731 188.611,110.646 188.800,110.400 188.800 C 110.154 188.800,110.064 188.980,110.200 189.200 C 110.336 189.420,110.273 189.600,110.061 189.600 C 109.849 189.600,109.769 189.960,109.884 190.400 C 109.999 190.840,109.912 191.200,109.689 191.200 C 109.467 191.200,109.172 191.495,109.034 191.857 C 108.814 192.430,108.871 192.444,109.491 191.963 C 110.164 191.441,110.166 191.454,109.515 192.222 C 109.096 192.716,108.920 193.373,109.062 193.915 C 109.189 194.402,109.137 194.800,108.947 194.800 C 108.756 194.800,108.572 195.290,108.537 195.888 C 108.502 196.486,108.277 197.041,108.037 197.121 C 107.797 197.201,107.600 197.442,107.600 197.657 C 107.600 197.872,107.825 197.920,108.100 197.765 C 108.500 197.539,108.500 197.590,108.100 198.021 C 107.825 198.318,107.597 199.379,107.594 200.380 C 107.591 201.381,107.456 201.992,107.294 201.738 C 107.132 201.484,106.962 202.280,106.915 203.506 C 106.868 204.731,106.663 205.839,106.459 205.967 C 106.247 206.101,106.069 211.380,106.041 218.325 C 106.010 226.380,106.129 230.367,106.397 230.202 C 106.655 230.042,106.800 231.113,106.800 233.176 C 106.800 235.059,106.966 236.400,107.200 236.400 C 107.420 236.400,107.600 236.929,107.600 237.576 C 107.600 238.223,107.759 238.851,107.953 238.971 C 108.331 239.205,108.996 243.336,108.842 244.500 C 108.791 244.885,108.902 245.200,109.088 245.200 C 109.273 245.200,109.465 245.681,109.514 246.270 C 109.563 246.858,109.850 247.623,110.153 247.970 C 110.455 248.316,110.634 249.016,110.550 249.524 C 110.466 250.033,110.566 250.345,110.771 250.218 C 110.977 250.091,111.258 250.170,111.396 250.393 C 111.534 250.617,111.435 250.800,111.175 250.800 C 110.816 250.800,110.819 250.941,111.185 251.382 C 111.451 251.703,111.553 252.153,111.411 252.382 C 111.269 252.612,111.343 252.800,111.576 252.800 C 111.809 252.800,112.000 253.141,112.000 253.557 C 112.000 253.974,112.267 254.417,112.593 254.542 C 112.954 254.680,113.087 255.030,112.931 255.434 C 112.775 255.842,112.932 256.242,113.338 256.469 C 113.702 256.673,114.000 257.101,114.000 257.420 C 114.000 257.739,114.155 258.000,114.345 258.000 C 114.534 258.000,114.612 258.405,114.519 258.900 C 114.415 259.445,114.674 260.148,115.174 260.683 C 115.628 261.169,116.000 261.778,116.000 262.036 C 116.000 262.295,116.315 262.797,116.700 263.153 C 117.382 263.783,117.685 264.483,117.718 265.500 C 117.726 265.775,117.984 266.000,118.290 266.000 C 118.597 266.000,118.736 266.180,118.600 266.400 C 118.464 266.620,118.588 266.803,118.876 266.806 C 119.257 266.811,119.236 266.918,118.800 267.200 C 118.400 267.458,118.367 267.590,118.700 267.594 C 118.975 267.597,119.200 267.870,119.200 268.200 C 119.200 268.530,119.380 268.800,119.600 268.800 C 119.820 268.800,120.000 269.081,120.000 269.424 C 120.000 269.767,120.180 269.936,120.400 269.800 C 120.620 269.664,120.800 269.929,120.800 270.389 C 120.800 270.849,121.069 271.328,121.398 271.454 C 121.726 271.581,121.904 271.832,121.792 272.013 C 121.680 272.194,121.954 272.458,122.400 272.600 C 122.846 272.742,123.108 273.025,122.982 273.229 C 122.856 273.433,122.954 273.600,123.200 273.600 C 123.446 273.600,123.556 273.747,123.445 273.927 C 123.334 274.107,123.593 274.507,124.021 274.815 C 124.450 275.124,124.800 275.639,124.800 275.960 C 124.800 276.281,125.397 277.096,126.126 277.772 C 126.856 278.447,127.575 279.326,127.724 279.725 C 127.880 280.145,128.190 280.330,128.459 280.164 C 128.748 279.985,128.816 280.051,128.638 280.338 C 128.481 280.592,128.543 280.800,128.776 280.800 C 129.009 280.800,129.179 280.935,129.153 281.100 C 129.015 281.970,129.313 282.361,130.400 282.740 C 131.069 282.973,131.600 283.446,131.600 283.808 C 131.600 284.627,132.671 285.727,133.168 285.420 C 133.374 285.292,133.669 285.588,133.824 286.076 C 134.191 287.230,134.979 288.000,135.795 288.000 C 136.154 288.000,136.336 288.180,136.200 288.400 C 136.064 288.620,136.154 288.800,136.400 288.800 C 136.646 288.800,136.737 288.978,136.603 289.195 C 136.457 289.431,136.649 289.486,137.079 289.332 C 137.476 289.189,137.674 289.213,137.519 289.384 C 137.147 289.797,138.175 290.800,138.971 290.800 C 139.317 290.800,139.600 290.991,139.600 291.224 C 139.600 291.457,139.780 291.536,140.000 291.400 C 140.220 291.264,140.400 291.444,140.400 291.800 C 140.400 292.156,140.579 292.336,140.798 292.201 C 141.017 292.066,141.404 292.409,141.657 292.965 C 141.910 293.520,142.272 293.879,142.461 293.762 C 142.651 293.645,142.913 293.830,143.045 294.172 C 143.176 294.515,143.445 294.696,143.642 294.574 C 143.839 294.452,144.000 294.633,144.000 294.976 C 144.000 295.319,144.270 295.600,144.600 295.600 C 144.930 295.600,145.200 295.791,145.200 296.024 C 145.200 296.257,145.363 296.346,145.563 296.223 C 145.762 296.100,146.927 296.815,148.152 297.813 C 149.377 298.810,150.473 299.620,150.589 299.613 C 151.662 299.546,152.007 299.665,151.783 300.027 C 151.625 300.283,151.816 300.403,152.260 300.327 C 152.687 300.254,152.958 300.411,152.900 300.700 C 152.845 300.975,153.138 301.200,153.551 301.200 C 153.964 301.200,154.524 301.468,154.796 301.796 C 155.068 302.123,155.450 302.293,155.645 302.172 C 155.840 302.051,156.000 302.133,156.000 302.353 C 156.000 302.574,156.377 302.682,156.837 302.593 C 157.485 302.468,157.615 302.583,157.416 303.104 C 157.274 303.473,157.286 303.648,157.442 303.491 C 157.598 303.335,157.941 303.385,158.204 303.603 C 158.466 303.821,159.162 304.039,159.749 304.088 C 160.481 304.148,160.750 304.353,160.603 304.736 C 160.444 305.151,160.649 305.246,161.394 305.103 C 162.076 304.973,162.400 305.089,162.400 305.463 C 162.400 305.835,162.729 305.956,163.408 305.833 C 163.977 305.730,164.315 305.814,164.185 306.025 C 163.979 306.358,164.547 306.560,164.958 306.300 C 165.045 306.245,165.484 306.533,165.933 306.939 C 166.382 307.346,166.941 307.560,167.175 307.416 C 167.409 307.271,167.600 307.356,167.600 307.603 C 167.600 307.865,167.921 307.952,168.366 307.811 C 168.788 307.677,169.244 307.747,169.379 307.966 C 169.515 308.186,169.890 308.264,170.213 308.140 C 170.536 308.016,170.800 308.114,170.800 308.357 C 170.800 308.601,171.340 308.800,172.000 308.800 C 172.660 308.800,173.200 308.980,173.200 309.200 C 173.200 309.420,173.592 309.600,174.072 309.600 C 175.016 309.600,177.351 310.268,178.542 310.879 C 179.112 311.171,179.214 311.136,178.983 310.730 C 178.741 310.304,178.788 310.298,179.221 310.700 C 179.518 310.975,180.354 311.200,181.080 311.200 C 181.866 311.200,182.402 311.402,182.406 311.700 C 182.410 312.033,182.542 312.000,182.800 311.600 C 183.058 311.200,183.190 311.167,183.194 311.500 C 183.198 311.832,183.865 312.000,185.176 312.000 C 186.263 312.000,187.265 312.182,187.403 312.405 C 187.714 312.909,212.000 312.851,212.000 312.347 C 212.000 312.156,213.091 312.000,214.424 312.000 C 215.757 312.000,216.753 311.847,216.637 311.660 C 216.454 311.363,216.972 311.269,219.600 311.124 C 219.930 311.106,220.460 310.890,220.777 310.645 C 221.238 310.289,221.283 310.321,221.000 310.800 C 220.720 311.276,220.766 311.311,221.223 310.970 C 221.987 310.401,224.836 309.600,226.097 309.600 C 226.650 309.600,227.324 309.332,227.596 309.004 C 227.868 308.677,228.250 308.507,228.445 308.628 C 228.640 308.749,229.025 308.707,229.300 308.535 C 229.913 308.152,230.773 307.941,231.700 307.946 C 232.085 307.948,232.400 307.771,232.400 307.552 C 232.400 307.332,232.593 307.272,232.830 307.418 C 233.066 307.564,233.725 307.260,234.294 306.742 C 234.863 306.224,235.199 306.025,235.041 306.300 C 234.629 307.015,235.791 306.933,236.396 306.204 C 236.668 305.877,237.050 305.707,237.245 305.828 C 237.440 305.949,237.600 305.857,237.600 305.624 C 237.600 305.391,238.056 305.200,238.613 305.200 C 239.169 305.200,239.724 304.941,239.846 304.625 C 239.967 304.309,240.321 304.148,240.633 304.268 C 240.945 304.388,241.200 304.286,241.200 304.043 C 241.200 303.799,241.515 303.594,241.900 303.587 C 242.656 303.574,244.101 302.634,243.811 302.344 C 243.714 302.247,243.982 302.141,244.406 302.110 C 244.831 302.078,245.577 301.680,246.065 301.226 C 246.552 300.772,247.288 300.400,247.699 300.400 C 248.111 300.400,248.336 300.220,248.200 300.000 C 248.064 299.780,248.160 299.600,248.413 299.600 C 248.667 299.600,249.331 299.240,249.891 298.800 C 250.450 298.360,251.244 298.000,251.654 298.000 C 252.064 298.000,252.400 297.820,252.400 297.600 C 252.400 297.380,252.630 297.200,252.912 297.200 C 253.193 297.200,253.683 296.840,254.000 296.400 C 254.317 295.960,254.857 295.600,255.200 295.600 C 255.543 295.600,256.083 295.240,256.400 294.800 C 256.717 294.360,257.176 294.000,257.421 294.000 C 257.665 294.000,258.102 293.556,258.393 293.014 C 258.683 292.471,259.041 292.102,259.187 292.192 C 259.334 292.283,259.707 292.007,260.015 291.579 C 260.324 291.150,260.817 290.800,261.112 290.800 C 261.419 290.800,261.524 290.600,261.358 290.332 C 261.162 290.015,261.289 289.949,261.755 290.127 C 262.133 290.272,262.368 290.258,262.277 290.095 C 262.074 289.730,264.269 287.603,264.555 287.888 C 264.769 288.103,266.040 286.993,266.014 286.614 C 266.006 286.496,266.135 286.362,266.300 286.315 C 266.953 286.131,268.272 284.574,268.123 284.164 C 268.035 283.924,268.246 283.494,268.591 283.208 C 269.130 282.760,269.182 282.793,268.960 283.443 C 268.723 284.137,268.751 284.134,269.297 283.400 C 269.624 282.960,270.019 282.195,270.173 281.700 C 270.328 281.205,270.622 280.800,270.827 280.800 C 271.583 280.800,271.815 280.568,272.557 279.069 C 273.106 277.959,273.407 277.684,273.651 278.069 C 273.906 278.472,273.989 278.428,273.994 277.887 C 273.997 277.496,274.270 277.071,274.600 276.945 C 274.930 276.818,275.200 276.446,275.200 276.118 C 275.200 275.789,275.740 275.017,276.400 274.400 C 277.060 273.783,277.600 273.081,277.600 272.840 C 277.600 272.598,277.791 272.400,278.024 272.400 C 278.257 272.400,278.348 272.239,278.226 272.042 C 278.104 271.845,278.274 271.581,278.602 271.454 C 278.932 271.328,279.203 270.726,279.206 270.113 C 279.211 269.247,279.298 269.133,279.600 269.600 C 279.935 270.119,279.989 270.110,279.994 269.533 C 279.997 269.167,280.188 268.804,280.418 268.727 C 280.648 268.651,280.865 268.198,280.901 267.722 C 280.937 267.245,281.109 266.944,281.283 267.051 C 281.457 267.159,281.600 266.967,281.600 266.624 C 281.600 266.281,281.780 266.000,282.000 266.000 C 282.220 266.000,282.400 265.640,282.400 265.200 C 282.400 264.760,282.592 264.400,282.827 264.400 C 283.078 264.400,283.150 264.029,283.001 263.500 C 282.831 262.895,282.868 262.772,283.114 263.127 C 283.572 263.785,285.790 259.472,285.449 258.585 C 285.315 258.235,285.462 258.000,285.813 258.000 C 286.136 258.000,286.379 257.865,286.353 257.700 C 286.216 256.838,286.444 255.980,286.757 256.174 C 287.096 256.383,287.444 255.448,287.864 253.204 C 287.967 252.655,288.309 251.921,288.625 251.572 C 289.333 250.790,289.374 250.265,288.700 250.606 C 288.425 250.745,288.487 250.621,288.839 250.330 C 289.190 250.038,289.431 249.484,289.374 249.098 C 289.317 248.712,289.413 248.485,289.588 248.593 C 289.986 248.838,290.840 245.588,290.515 245.062 C 290.378 244.841,290.488 244.807,290.771 244.982 C 291.104 245.188,291.233 245.045,291.167 244.544 C 291.114 244.135,291.199 243.170,291.356 242.400 C 291.514 241.630,291.672 240.595,291.707 240.100 C 291.742 239.605,291.912 239.200,292.085 239.200 C 292.258 239.200,292.400 238.570,292.400 237.800 C 292.400 237.030,292.580 236.400,292.800 236.400 C 293.029 236.400,293.200 235.200,293.200 233.600 C 293.200 232.000,293.371 230.800,293.600 230.800 C 294.136 230.800,294.150 206.918,293.614 206.733 C 293.401 206.660,293.195 205.430,293.156 204.000 C 293.117 202.570,292.925 201.296,292.729 201.168 C 292.534 201.041,292.356 200.078,292.335 199.028 C 292.311 197.804,292.174 197.313,291.955 197.660 C 291.740 197.998,291.608 197.378,291.600 196.000 C 291.591 194.375,291.481 193.957,291.179 194.400 C 290.886 194.830,290.847 194.560,291.041 193.442 C 291.213 192.450,291.167 191.973,290.915 192.129 C 290.466 192.406,289.488 189.602,289.414 187.827 C 289.387 187.183,289.158 186.586,288.905 186.502 C 288.652 186.417,288.544 186.091,288.664 185.778 C 288.784 185.464,288.595 185.096,288.244 184.961 C 287.892 184.827,287.711 184.544,287.841 184.334 C 288.148 183.837,287.199 181.493,286.523 181.080 C 286.236 180.904,286.000 180.409,286.000 179.980 C 286.000 179.551,285.830 179.200,285.623 179.200 C 285.416 179.200,285.312 178.859,285.392 178.442 C 285.472 178.025,285.192 177.313,284.769 176.859 C 284.346 176.405,284.000 175.745,284.000 175.393 C 284.000 175.006,283.815 174.867,283.532 175.042 C 283.219 175.235,283.147 175.115,283.315 174.677 C 283.453 174.317,283.349 173.790,283.083 173.504 C 282.397 172.767,281.108 170.400,281.393 170.400 C 281.524 170.400,281.399 170.149,281.116 169.842 C 280.832 169.535,280.465 169.366,280.300 169.466 C 280.135 169.565,280.000 169.206,280.000 168.666 C 280.000 168.127,279.730 167.582,279.400 167.455 C 279.070 167.329,278.800 166.977,278.800 166.674 C 278.800 165.953,277.395 164.339,277.059 164.674 C 276.917 164.817,276.800 164.528,276.800 164.033 C 276.800 163.538,276.213 162.563,275.496 161.867 C 274.778 161.170,274.143 160.467,274.085 160.304 C 273.634 159.054,273.473 158.832,273.158 159.026 C 272.961 159.148,272.800 159.069,272.800 158.852 C 272.800 158.635,272.575 158.219,272.300 157.929 C 272.025 157.638,271.546 156.907,271.235 156.305 C 270.816 155.492,270.540 155.318,270.167 155.628 C 269.781 155.947,269.715 155.848,269.883 155.206 C 270.034 154.626,269.931 154.402,269.551 154.483 C 269.248 154.547,269.045 154.375,269.100 154.100 C 269.155 153.825,268.919 153.600,268.576 153.600 C 268.233 153.600,268.064 153.420,268.200 153.200 C 268.336 152.980,268.300 152.800,268.120 152.800 C 267.939 152.800,267.318 152.361,266.739 151.824 C 266.160 151.287,265.577 150.957,265.443 151.090 C 265.218 151.315,265.043 150.596,265.153 149.900 C 265.179 149.735,264.919 149.600,264.576 149.600 C 264.233 149.600,264.063 149.422,264.197 149.205 C 264.342 148.970,264.163 148.916,263.755 149.073 C 263.289 149.251,263.162 149.185,263.358 148.868 C 263.517 148.611,263.457 148.400,263.224 148.400 C 262.991 148.400,262.797 148.085,262.794 147.700 C 262.789 147.179,262.704 147.133,262.458 147.520 C 262.215 147.903,261.753 147.624,260.696 146.454 C 259.909 145.582,259.160 144.973,259.032 145.101 C 258.904 145.229,258.800 145.033,258.800 144.667 C 258.800 144.300,258.521 144.000,258.181 144.000 C 257.840 144.000,257.145 143.550,256.635 143.000 C 256.125 142.450,255.504 142.000,255.254 142.000 C 255.004 142.000,254.800 141.820,254.800 141.600 C 254.800 141.380,254.320 141.200,253.733 141.200 C 253.147 141.200,252.785 141.082,252.930 140.937 C 253.354 140.512,252.395 139.627,251.771 139.867 C 251.422 140.000,251.200 139.835,251.200 139.443 C 251.200 139.089,251.065 138.821,250.900 138.847 C 249.996 138.990,249.185 138.748,249.400 138.400 C 249.536 138.180,249.356 138.000,249.000 138.000 C 248.608 138.000,248.467 137.816,248.642 137.532 C 248.834 137.222,248.717 137.146,248.295 137.308 C 247.945 137.443,247.443 137.293,247.180 136.976 C 246.917 136.659,246.454 136.400,246.151 136.400 C 245.848 136.400,245.600 136.209,245.600 135.976 C 245.600 135.743,245.420 135.664,245.200 135.800 C 244.980 135.936,244.800 135.846,244.800 135.600 C 244.800 135.354,244.620 135.264,244.400 135.400 C 244.180 135.536,244.000 135.457,244.000 135.224 C 244.000 134.991,243.730 134.800,243.400 134.800 C 243.070 134.800,242.800 134.626,242.800 134.413 C 242.800 134.199,242.530 134.129,242.200 134.255 C 241.870 134.382,241.600 134.306,241.600 134.086 C 241.600 133.866,241.116 133.565,240.524 133.417 C 239.933 133.268,238.960 132.799,238.363 132.373 C 237.765 131.948,236.989 131.600,236.638 131.600 C 236.287 131.600,236.000 131.384,236.000 131.120 C 236.000 130.755,235.889 130.751,235.534 131.106 C 235.180 131.460,234.917 131.396,234.434 130.839 C 234.085 130.437,233.169 129.958,232.400 129.776 C 231.630 129.594,230.865 129.413,230.700 129.373 C 230.535 129.333,230.119 129.278,229.776 129.250 C 229.433 129.222,229.256 129.032,229.383 128.827 C 229.510 128.623,229.115 128.465,228.507 128.478 C 226.745 128.515,226.338 128.424,226.571 128.047 C 226.691 127.853,226.297 127.678,225.695 127.659 C 223.768 127.597,221.408 127.109,221.158 126.719 C 221.026 126.512,219.981 126.279,218.837 126.203 C 217.694 126.126,216.542 125.889,216.279 125.677 C 216.016 125.465,214.867 125.323,213.727 125.363 C 212.376 125.411,211.741 125.290,211.904 125.018 C 212.041 124.788,211.814 124.870,211.400 125.200 C 210.961 125.550,210.772 125.591,210.947 125.300 C 211.184 124.905,208.936 124.800,200.224 124.800 C 191.916 124.800,189.200 124.918,189.200 125.280 C 189.200 125.653,189.093 125.653,188.720 125.280 C 188.180 124.740,187.600 124.647,187.600 125.100 M319.460 138.150 C 319.037 138.670,318.800 138.768,318.800 138.420 C 318.800 138.081,318.515 138.206,318.039 138.755 C 317.493 139.384,317.219 139.487,317.070 139.116 C 316.948 138.812,316.850 138.915,316.832 139.367 C 316.814 139.788,316.681 140.014,316.535 139.868 C 316.389 139.722,315.942 140.142,315.541 140.801 C 315.140 141.461,314.527 142.000,314.179 142.000 C 313.737 142.000,313.620 142.232,313.790 142.769 C 313.951 143.275,313.721 143.841,313.117 144.427 C 312.613 144.917,312.456 145.171,312.769 144.992 C 313.188 144.753,313.162 144.919,312.669 145.623 C 311.909 146.708,311.690 153.361,312.400 153.800 C 312.620 153.936,312.797 154.262,312.794 154.524 C 312.790 154.810,312.633 154.761,312.400 154.400 C 312.187 154.070,312.009 153.982,312.006 154.204 C 312.003 154.426,312.459 155.103,313.021 155.709 C 313.582 156.314,313.933 156.985,313.801 157.198 C 313.523 157.648,316.199 160.468,316.560 160.107 C 316.692 159.975,316.800 160.167,316.800 160.533 C 316.800 160.978,317.133 161.200,317.800 161.200 C 318.350 161.200,318.800 161.380,318.800 161.600 C 318.800 161.820,319.070 162.000,319.400 162.000 C 319.730 162.000,320.000 162.180,320.000 162.400 C 320.000 162.645,321.933 162.800,325.000 162.800 C 328.067 162.800,330.000 162.645,330.000 162.400 C 330.000 162.180,330.360 162.000,330.800 162.000 C 331.240 162.000,331.600 161.820,331.600 161.600 C 331.600 161.380,331.883 161.200,332.229 161.200 C 332.974 161.200,334.069 160.203,333.714 159.848 C 333.578 159.711,333.767 159.600,334.133 159.600 C 334.500 159.600,334.800 159.409,334.800 159.176 C 334.800 158.943,334.592 158.881,334.338 159.038 C 334.059 159.211,333.985 159.148,334.151 158.879 C 334.302 158.635,334.719 158.548,335.078 158.685 C 335.517 158.854,335.636 158.781,335.440 158.464 C 335.279 158.205,335.520 157.520,335.974 156.942 C 336.428 156.365,336.801 156.051,336.802 156.246 C 336.804 156.441,337.077 156.078,337.410 155.440 C 337.742 154.803,337.921 154.188,337.807 154.074 C 337.693 153.960,337.600 154.087,337.600 154.357 C 337.600 154.627,337.397 154.722,337.149 154.568 C 336.842 154.379,336.912 154.169,337.368 153.914 C 338.330 153.375,338.239 145.768,337.257 144.658 C 336.896 144.250,336.600 143.800,336.600 143.658 C 336.600 143.516,336.468 143.444,336.307 143.498 C 336.146 143.551,335.892 143.109,335.743 142.515 C 335.448 141.341,333.834 139.499,333.442 139.891 C 333.309 140.024,333.200 139.833,333.200 139.467 C 333.200 139.018,332.865 138.800,332.176 138.800 C 331.596 138.800,331.260 138.627,331.400 138.400 C 331.536 138.180,331.277 138.000,330.824 138.000 C 330.371 138.000,330.000 137.808,330.000 137.574 C 330.000 136.685,320.214 137.220,319.460 138.150 M198.400 150.811 C 197.000 151.117,197.000 151.117,198.726 151.079 C 199.675 151.058,200.552 150.877,200.676 150.678 C 200.799 150.478,201.052 150.559,201.238 150.857 C 201.513 151.299,201.727 151.306,202.388 150.897 C 202.897 150.581,203.200 150.549,203.200 150.811 C 203.200 151.089,203.482 151.077,204.048 150.774 C 204.635 150.460,204.813 150.455,204.627 150.757 C 204.442 151.056,205.105 151.169,206.740 151.115 C 208.252 151.066,209.360 151.235,209.771 151.576 C 210.128 151.872,210.535 151.998,210.676 151.857 C 210.818 151.716,210.693 151.600,210.400 151.600 C 210.107 151.600,209.982 151.484,210.124 151.343 C 210.265 151.202,210.610 151.275,210.890 151.506 C 211.171 151.737,212.120 151.976,213.000 152.037 C 213.880 152.099,214.829 152.321,215.110 152.531 C 215.390 152.742,215.735 152.798,215.877 152.656 C 216.019 152.514,216.465 152.697,216.868 153.061 C 217.450 153.588,217.601 153.609,217.606 153.162 C 217.610 152.826,217.730 152.761,217.906 153.000 C 218.068 153.220,218.380 153.416,218.600 153.435 C 219.709 153.531,222.400 154.576,222.400 154.911 C 222.400 155.121,222.760 155.199,223.200 155.084 C 223.640 154.969,224.000 155.049,224.000 155.261 C 224.000 155.473,224.180 155.536,224.400 155.400 C 224.620 155.264,224.800 155.333,224.800 155.553 C 224.800 155.774,225.160 155.885,225.600 155.800 C 226.101 155.703,226.400 155.861,226.400 156.223 C 226.400 156.795,227.059 156.987,228.600 156.862 C 229.207 156.813,229.266 156.884,228.847 157.155 C 228.437 157.421,228.617 157.584,229.547 157.788 C 230.236 157.940,230.800 158.229,230.800 158.432 C 230.800 158.634,231.160 158.800,231.600 158.800 C 232.040 158.800,232.400 158.980,232.400 159.200 C 232.400 159.420,232.591 159.600,232.824 159.600 C 233.057 159.600,233.136 159.420,233.000 159.200 C 232.864 158.980,232.931 158.800,233.149 158.800 C 233.368 158.800,233.659 159.156,233.797 159.592 C 233.936 160.027,234.173 160.366,234.324 160.345 C 235.230 160.216,236.012 160.457,235.800 160.800 C 235.664 161.020,235.923 161.200,236.376 161.200 C 236.829 161.200,237.200 161.380,237.200 161.600 C 237.200 161.820,237.393 162.000,237.629 162.000 C 238.268 162.000,239.204 163.058,238.881 163.417 C 238.726 163.588,238.802 163.613,239.048 163.472 C 239.295 163.332,239.903 163.569,240.400 164.000 C 240.897 164.431,241.488 164.669,241.713 164.530 C 241.939 164.390,242.004 164.470,241.858 164.706 C 241.504 165.279,242.738 166.480,243.332 166.140 C 243.590 165.992,243.676 166.010,243.524 166.178 C 243.150 166.594,245.004 168.400,245.805 168.400 C 246.158 168.400,246.353 168.553,246.237 168.740 C 245.974 169.165,247.838 170.828,248.187 170.480 C 248.327 170.339,248.345 170.489,248.227 170.812 C 248.087 171.196,248.461 171.609,249.306 172.004 C 250.018 172.336,250.547 172.854,250.483 173.154 C 250.419 173.455,250.734 173.959,251.183 174.273 C 251.632 174.588,252.000 175.028,252.000 175.251 C 252.000 175.474,252.270 175.927,252.600 176.257 C 252.930 176.587,253.201 176.709,253.203 176.529 C 253.204 176.348,253.533 176.696,253.933 177.303 C 254.333 177.910,254.782 178.285,254.930 178.137 C 255.079 177.988,255.200 178.257,255.200 178.733 C 255.200 179.210,255.380 179.600,255.600 179.600 C 255.820 179.600,256.000 179.793,256.000 180.029 C 256.000 180.264,256.272 180.729,256.604 181.061 C 256.936 181.393,257.113 181.817,256.998 182.003 C 256.883 182.190,257.151 182.457,257.594 182.598 C 258.091 182.756,258.400 183.203,258.400 183.766 C 258.400 184.267,258.760 185.093,259.200 185.600 C 259.906 186.414,260.150 186.980,259.932 187.300 C 259.894 187.355,260.344 188.161,260.932 189.092 C 261.519 190.023,262.000 191.133,262.000 191.559 C 262.000 191.985,262.166 192.393,262.370 192.467 C 262.573 192.540,262.798 192.870,262.870 193.200 C 262.941 193.530,263.157 193.915,263.350 194.055 C 263.543 194.194,263.700 194.779,263.700 195.355 C 263.700 195.930,263.858 196.400,264.050 196.400 C 264.243 196.400,264.400 196.959,264.400 197.643 C 264.400 198.504,264.561 198.824,264.925 198.684 C 265.306 198.538,265.402 198.807,265.274 199.674 C 265.105 200.832,265.788 202.699,266.599 203.294 C 266.848 203.476,266.810 203.590,266.500 203.594 C 265.906 203.601,265.823 204.674,266.402 204.867 C 266.622 204.941,266.845 205.811,266.896 206.801 C 266.947 207.790,267.134 208.705,267.311 208.834 C 267.488 208.962,267.665 211.181,267.704 213.764 C 267.743 216.347,267.915 218.548,268.087 218.654 C 268.259 218.760,268.400 219.027,268.400 219.247 C 268.400 219.467,268.220 219.536,268.000 219.400 C 267.780 219.264,267.600 219.433,267.600 219.776 C 267.600 220.119,267.825 220.403,268.100 220.406 C 268.433 220.410,268.400 220.542,268.000 220.800 C 267.467 221.145,267.467 221.189,268.000 221.200 C 268.409 221.208,268.453 221.306,268.138 221.506 C 267.848 221.691,267.676 223.063,267.676 225.187 C 267.676 227.286,267.510 228.630,267.238 228.721 C 266.997 228.801,266.800 229.604,266.800 230.505 C 266.800 231.931,266.544 233.094,265.680 235.600 C 265.566 235.930,265.397 236.739,265.303 237.397 C 265.210 238.055,265.013 238.685,264.867 238.797 C 264.720 238.909,264.551 239.442,264.490 239.983 C 264.430 240.523,264.250 241.063,264.090 241.183 C 263.931 241.302,263.742 241.940,263.672 242.600 C 263.602 243.260,263.377 243.860,263.172 243.933 C 262.967 244.007,262.800 244.322,262.800 244.633 C 262.800 244.945,262.620 245.200,262.400 245.200 C 262.180 245.200,262.000 245.661,262.000 246.224 C 262.000 246.804,261.827 247.140,261.600 247.000 C 261.380 246.864,261.200 246.943,261.200 247.176 C 261.200 247.409,261.425 247.606,261.700 247.613 C 261.975 247.621,261.775 247.981,261.256 248.413 C 260.736 248.846,260.449 249.200,260.618 249.200 C 260.786 249.200,260.612 249.544,260.232 249.965 C 259.851 250.386,259.485 250.971,259.419 251.265 C 259.151 252.458,258.203 254.400,257.889 254.400 C 257.704 254.400,257.664 254.580,257.800 254.800 C 257.936 255.020,257.756 255.200,257.400 255.200 C 257.044 255.200,256.850 255.357,256.968 255.548 C 257.086 255.739,256.737 256.414,256.192 257.048 C 255.647 257.682,255.201 258.413,255.200 258.673 C 255.200 258.933,254.840 259.260,254.400 259.400 C 253.960 259.540,253.600 259.912,253.600 260.227 C 253.600 260.542,253.426 260.800,253.213 260.800 C 252.999 260.800,252.940 261.100,253.081 261.466 C 253.245 261.893,253.179 262.034,252.897 261.860 C 252.651 261.708,252.345 261.944,252.202 262.394 C 252.061 262.837,251.808 263.200,251.638 263.200 C 250.982 263.200,248.038 266.347,248.513 266.540 C 248.781 266.648,248.601 266.751,248.113 266.768 C 247.491 266.791,247.295 266.981,247.457 267.405 C 247.629 267.854,247.507 267.939,246.979 267.737 C 246.527 267.563,246.364 267.618,246.530 267.888 C 246.674 268.120,246.209 268.763,245.496 269.315 C 244.783 269.867,243.795 270.704,243.300 271.175 C 242.805 271.646,242.397 271.889,242.393 271.716 C 242.390 271.542,242.012 271.985,241.554 272.700 C 241.096 273.415,240.559 274.022,240.361 274.050 C 239.618 274.153,239.367 274.251,238.038 274.959 C 237.288 275.358,236.316 276.020,235.877 276.429 C 235.438 276.838,234.917 277.072,234.718 276.949 C 234.520 276.827,234.007 277.131,233.579 277.624 C 233.150 278.118,232.800 278.377,232.800 278.199 C 232.800 278.021,232.409 278.219,231.931 278.638 C 231.451 279.059,231.215 279.141,231.403 278.821 C 231.698 278.321,229.348 279.746,228.800 280.400 C 228.690 280.531,228.172 280.665,227.648 280.698 C 227.125 280.731,226.270 281.159,225.748 281.648 C 225.227 282.138,224.396 282.589,223.900 282.650 C 221.922 282.896,220.189 283.327,219.997 283.622 C 219.885 283.793,219.255 284.009,218.597 284.102 C 217.939 284.195,216.890 284.481,216.266 284.738 C 215.643 284.995,214.940 285.087,214.705 284.941 C 214.469 284.795,214.387 284.856,214.523 285.075 C 214.673 285.318,213.959 285.503,212.702 285.547 C 211.565 285.588,210.537 285.769,210.417 285.949 C 210.298 286.130,208.852 286.319,207.205 286.369 C 205.558 286.419,203.948 286.671,203.628 286.930 C 203.181 287.292,203.113 287.290,203.333 286.923 C 203.536 286.584,203.209 286.468,202.210 286.523 C 201.435 286.565,200.800 286.735,200.800 286.900 C 200.800 287.065,200.429 287.200,199.976 287.200 C 199.523 287.200,199.264 287.020,199.400 286.800 C 199.544 286.567,199.137 286.400,198.424 286.400 C 197.751 286.400,197.200 286.580,197.200 286.800 C 197.200 287.020,197.009 287.200,196.776 287.200 C 196.543 287.200,196.455 287.035,196.579 286.833 C 196.706 286.629,195.875 286.466,194.703 286.465 C 190.256 286.462,189.556 286.396,189.800 286.000 C 190.004 285.670,187.197 285.348,185.900 285.553 C 185.735 285.579,185.600 285.420,185.600 285.200 C 185.600 284.980,185.409 284.800,185.176 284.800 C 184.943 284.800,184.872 284.993,185.018 285.230 C 185.207 285.536,185.042 285.536,184.442 285.230 C 183.979 284.993,183.242 284.620,182.805 284.400 C 182.368 284.180,181.558 284.000,181.005 284.000 C 180.452 284.000,180.000 283.820,180.000 283.600 C 180.000 283.380,179.359 283.200,178.576 283.200 C 177.729 283.200,177.253 283.038,177.400 282.800 C 177.541 282.572,177.196 282.400,176.601 282.400 C 176.025 282.400,174.733 281.942,173.729 281.381 C 172.725 280.821,171.814 280.452,171.705 280.562 C 171.595 280.672,171.242 280.499,170.920 280.177 C 170.599 279.856,170.142 279.712,169.906 279.858 C 169.651 280.015,169.593 279.936,169.762 279.662 C 169.931 279.388,169.793 279.200,169.424 279.200 C 169.081 279.200,168.799 279.065,168.797 278.900 C 168.795 278.735,168.330 278.385,167.762 278.121 C 166.900 277.721,166.767 277.737,166.951 278.215 C 167.129 278.681,167.031 278.701,166.425 278.323 C 165.999 278.057,165.778 277.601,165.909 277.259 C 166.069 276.844,165.953 276.732,165.531 276.894 C 165.195 277.023,164.402 276.703,163.761 276.178 C 163.123 275.656,162.285 275.222,161.900 275.214 C 161.515 275.206,161.200 274.930,161.200 274.600 C 161.200 274.270,160.924 274.000,160.587 274.000 C 160.249 274.000,159.358 273.385,158.607 272.633 C 157.855 271.882,156.880 271.152,156.440 271.013 C 156.001 270.873,155.530 270.408,155.394 269.980 C 155.257 269.551,154.882 269.200,154.560 269.200 C 154.238 269.200,153.836 268.827,153.667 268.370 C 153.499 267.914,153.189 267.509,152.980 267.470 C 152.771 267.432,152.645 267.265,152.700 267.100 C 152.755 266.935,152.395 266.797,151.900 266.794 C 151.172 266.789,151.115 266.714,151.600 266.400 C 152.117 266.066,152.106 266.011,151.523 266.006 C 151.150 266.003,150.532 265.470,150.149 264.822 C 149.766 264.174,149.339 263.714,149.199 263.800 C 149.060 263.887,148.688 263.585,148.373 263.130 C 148.058 262.674,147.584 262.075,147.319 261.799 C 147.055 261.522,146.950 261.184,147.086 261.048 C 147.222 260.911,147.123 260.800,146.867 260.800 C 146.610 260.800,146.400 260.612,146.400 260.382 C 146.400 259.799,144.539 257.995,144.242 258.291 C 144.109 258.424,144.000 258.143,144.000 257.667 C 144.000 257.190,143.820 256.800,143.600 256.800 C 143.380 256.800,143.200 256.530,143.200 256.200 C 143.200 255.870,143.020 255.600,142.800 255.600 C 142.580 255.600,142.400 255.330,142.400 255.000 C 142.400 254.670,142.220 254.400,142.000 254.400 C 141.780 254.400,141.600 254.145,141.600 253.832 C 141.600 253.148,140.359 250.718,139.800 250.306 C 139.580 250.145,139.540 250.009,139.710 250.006 C 140.045 250.000,138.914 247.600,138.576 247.600 C 138.464 247.600,138.565 247.960,138.800 248.400 C 139.035 248.840,139.136 249.200,139.024 249.200 C 138.568 249.200,137.639 246.835,137.789 246.055 C 137.878 245.594,137.783 245.113,137.578 244.986 C 137.372 244.859,137.005 244.384,136.762 243.929 C 136.420 243.290,136.432 243.172,136.814 243.409 C 137.086 243.577,136.935 243.194,136.479 242.557 C 136.023 241.921,135.594 240.860,135.526 240.200 C 135.458 239.540,135.273 238.903,135.114 238.784 C 134.955 238.666,134.782 238.003,134.730 237.312 C 134.677 236.621,134.491 236.144,134.317 236.251 C 134.024 236.432,133.952 236.141,133.841 234.336 C 133.818 233.971,133.665 233.536,133.500 233.369 C 133.335 233.203,133.200 232.413,133.200 231.613 C 133.200 230.814,132.975 229.918,132.700 229.621 C 132.293 229.183,132.312 229.145,132.800 229.418 C 133.320 229.709,133.326 229.662,132.842 229.066 C 132.455 228.589,132.298 227.351,132.329 225.005 C 132.354 223.103,132.196 221.521,131.967 221.380 C 131.693 221.210,131.694 220.968,131.971 220.635 C 132.498 220.000,132.410 217.147,131.874 217.478 C 131.621 217.634,131.608 217.519,131.838 217.162 C 132.036 216.853,132.228 214.915,132.263 212.856 C 132.299 210.775,132.521 208.919,132.764 208.676 C 133.004 208.436,133.200 207.185,133.200 205.896 C 133.200 204.251,133.335 203.636,133.654 203.833 C 133.968 204.027,134.051 203.731,133.925 202.872 C 133.804 202.049,133.930 201.559,134.297 201.418 C 134.602 201.301,134.819 200.889,134.780 200.503 C 134.616 198.897,134.823 197.567,135.200 197.800 C 135.420 197.936,135.600 197.707,135.600 197.290 C 135.600 196.874,135.725 196.409,135.877 196.256 C 136.029 196.104,136.214 195.587,136.287 195.107 C 136.360 194.627,136.622 194.110,136.868 193.958 C 137.115 193.805,137.208 193.397,137.075 193.051 C 136.933 192.680,137.114 192.257,137.517 192.023 C 137.892 191.804,138.057 191.619,137.883 191.612 C 137.709 191.605,138.041 190.790,138.621 189.800 C 139.201 188.810,139.535 188.000,139.362 188.000 C 139.189 188.000,139.396 187.717,139.824 187.370 C 140.251 187.024,140.330 186.879,140.000 187.047 C 139.379 187.364,140.126 186.151,140.909 185.571 C 141.080 185.444,141.298 184.932,141.394 184.431 C 141.491 183.930,141.891 183.223,142.285 182.860 C 142.678 182.497,143.056 181.941,143.125 181.625 C 143.194 181.309,143.554 180.769,143.925 180.425 C 144.296 180.081,144.649 179.563,144.709 179.273 C 144.769 178.983,145.264 178.300,145.809 177.755 C 146.354 177.210,146.800 176.592,146.800 176.382 C 146.800 176.172,147.089 176.000,147.443 176.000 C 147.824 176.000,148.000 175.776,147.875 175.451 C 147.754 175.135,148.076 174.681,148.632 174.383 C 149.164 174.098,149.600 173.669,149.600 173.429 C 149.600 173.189,149.967 172.763,150.416 172.483 C 150.864 172.203,151.106 171.772,150.954 171.525 C 150.780 171.245,150.858 171.188,151.159 171.375 C 151.629 171.665,153.200 170.252,153.200 169.539 C 153.200 169.352,153.393 169.200,153.629 169.200 C 154.177 169.200,154.970 168.398,155.310 167.500 C 155.456 167.115,155.807 166.800,156.090 166.800 C 156.373 166.800,157.369 166.080,158.303 165.200 C 159.237 164.320,160.282 163.600,160.624 163.600 C 160.967 163.600,161.136 163.420,161.000 163.200 C 160.864 162.980,161.033 162.800,161.376 162.800 C 161.719 162.800,162.000 162.620,162.000 162.400 C 162.000 162.180,162.405 161.997,162.900 161.994 C 163.628 161.989,163.685 161.914,163.200 161.600 C 162.715 161.286,162.772 161.211,163.500 161.206 C 163.995 161.203,164.400 161.020,164.400 160.800 C 164.400 160.580,164.651 160.400,164.957 160.400 C 165.264 160.400,165.615 160.139,165.737 159.819 C 165.870 159.473,166.314 159.306,166.834 159.407 C 167.315 159.499,167.597 159.463,167.460 159.327 C 167.146 159.013,168.775 158.157,170.340 157.813 C 170.996 157.669,171.629 157.301,171.747 156.995 C 171.866 156.683,172.326 156.509,172.791 156.598 C 173.248 156.686,173.516 156.588,173.387 156.379 C 173.258 156.171,173.433 156.000,173.776 156.000 C 174.119 156.000,174.400 155.799,174.400 155.553 C 174.400 155.304,174.753 155.199,175.200 155.316 C 175.639 155.431,176.102 155.359,176.227 155.156 C 176.353 154.953,176.621 154.889,176.823 155.014 C 177.025 155.139,177.091 154.981,176.968 154.662 C 176.795 154.210,177.054 154.112,178.144 154.217 C 178.973 154.298,179.722 154.135,179.985 153.818 C 180.230 153.523,180.784 153.375,181.217 153.489 C 181.650 153.602,182.287 153.460,182.632 153.174 C 182.977 152.887,183.831 152.636,184.529 152.615 C 185.228 152.595,186.044 152.425,186.342 152.239 C 186.641 152.053,187.541 151.871,188.343 151.835 C 189.145 151.800,190.015 151.638,190.277 151.476 C 190.539 151.314,192.127 151.147,193.807 151.103 C 195.487 151.060,196.948 150.884,197.054 150.712 C 197.160 150.541,197.822 150.424,198.524 150.453 L 199.800 150.505 198.400 150.811 " stroke="none" fill="#8c8c8c" fill-rule="evenodd"></path><path id="path1" d="M136.435 43.758 C 136.058 44.212,136.067 44.319,136.478 44.259 C 137.030 44.178,137.387 43.653,137.090 43.357 C 136.993 43.260,136.698 43.441,136.435 43.758 M268.944 48.677 C 269.096 48.829,269.621 49.010,270.110 49.078 C 270.816 49.177,270.876 49.121,270.400 48.807 C 269.721 48.360,268.519 48.253,268.944 48.677 M271.655 51.067 C 271.899 51.360,272.250 51.600,272.436 51.600 C 272.623 51.600,272.683 51.360,272.570 51.067 C 272.458 50.773,272.106 50.533,271.789 50.533 C 271.354 50.533,271.321 50.664,271.655 51.067 M125.900 52.988 C 124.901 54.361,125.035 54.529,126.200 53.364 C 127.238 52.326,127.411 51.991,126.900 52.013 C 126.735 52.019,126.285 52.458,125.900 52.988 M273.200 52.302 C 273.200 52.553,273.650 53.244,274.200 53.838 C 274.750 54.431,275.200 54.836,275.200 54.736 C 275.200 54.637,274.750 53.945,274.200 53.200 C 273.650 52.455,273.200 52.050,273.200 52.302 M259.661 83.800 C 259.596 84.871,260.207 85.836,260.574 85.243 C 260.724 84.999,260.669 84.800,260.451 84.800 C 260.234 84.800,259.978 84.395,259.882 83.900 C 259.733 83.124,259.702 83.110,259.661 83.800 M26.162 99.262 L 25.400 100.124 26.500 99.416 C 27.634 98.686,27.849 98.400,27.262 98.400 C 27.076 98.400,26.581 98.788,26.162 99.262 M175.852 127.409 C 175.655 127.921,175.760 127.945,176.509 127.555 C 177.784 126.892,177.833 126.800,176.909 126.800 C 176.456 126.800,175.980 127.074,175.852 127.409 M221.200 126.958 C 221.200 127.045,221.905 127.183,222.766 127.265 C 223.628 127.348,224.247 127.276,224.143 127.107 C 223.953 126.800,221.200 126.660,221.200 126.958 M313.273 143.287 C 312.713 143.847,312.655 144.400,313.157 144.400 C 313.524 144.400,314.127 143.194,313.883 142.949 C 313.808 142.875,313.534 143.026,313.273 143.287 M136.562 148.500 C 135.801 149.399,135.801 149.399,136.632 148.699 C 137.090 148.314,137.585 148.119,137.732 148.266 C 137.880 148.413,138.000 148.323,138.000 148.067 C 138.000 147.335,137.394 147.517,136.562 148.500 M133.862 151.131 C 133.498 151.534,133.200 152.011,133.200 152.193 C 133.200 152.374,133.560 152.107,134.000 151.600 C 134.440 151.093,134.800 150.615,134.800 150.539 C 134.800 150.239,134.495 150.432,133.862 151.131 M197.067 150.691 C 196.869 151.013,200.634 151.100,200.952 150.781 C 201.052 150.682,200.261 150.551,199.196 150.491 C 198.130 150.432,197.172 150.522,197.067 150.691 M176.655 154.600 C 176.557 154.857,176.721 155.067,177.021 155.067 C 177.320 155.067,177.646 154.857,177.745 154.600 C 177.843 154.343,177.679 154.133,177.379 154.133 C 177.080 154.133,176.754 154.343,176.655 154.600 M335.900 157.014 C 334.901 158.350,335.031 158.723,336.046 157.433 C 336.511 156.842,336.826 156.295,336.746 156.218 C 336.666 156.141,336.285 156.500,335.900 157.014 M248.803 171.886 C 248.805 172.059,249.255 172.408,249.804 172.663 C 250.352 172.917,250.701 172.963,250.578 172.765 C 250.252 172.237,248.799 171.518,248.803 171.886 M286.126 179.969 C 286.167 180.501,286.470 181.010,286.800 181.099 C 287.196 181.206,287.246 181.149,286.946 180.930 C 286.697 180.749,286.393 180.240,286.272 179.800 C 286.099 179.169,286.068 179.205,286.126 179.969 M289.717 189.985 C 289.963 190.636,290.239 191.095,290.330 191.003 C 290.615 190.718,290.004 188.800,289.627 188.800 C 289.430 188.800,289.471 189.333,289.717 189.985 M106.178 230.435 C 106.031 230.674,106.110 231.070,106.355 231.315 C 106.682 231.642,106.800 231.526,106.800 230.880 C 106.800 229.914,106.592 229.765,106.178 230.435 M137.600 246.620 C 137.600 247.004,138.812 249.200,139.024 249.200 C 139.136 249.200,139.048 248.864,138.828 248.453 C 138.608 248.042,138.542 247.592,138.681 247.453 C 138.820 247.314,138.713 247.200,138.443 247.200 C 138.173 247.200,138.064 247.020,138.200 246.800 C 138.336 246.580,138.257 246.400,138.024 246.400 C 137.791 246.400,137.600 246.499,137.600 246.620 M113.544 257.259 C 113.727 257.754,114.089 258.200,114.348 258.249 C 114.608 258.299,114.636 258.249,114.410 258.137 C 114.185 258.025,114.000 257.689,114.000 257.390 C 114.000 257.092,113.822 256.737,113.605 256.603 C 113.355 256.449,113.332 256.688,113.544 257.259 M116.477 263.574 C 116.743 264.000,117.105 264.258,117.283 264.149 C 117.461 264.039,117.348 263.690,117.032 263.374 C 116.212 262.555,115.909 262.665,116.477 263.574 M270.648 281.010 C 270.291 281.366,270.000 281.824,270.000 282.029 C 270.000 282.233,270.375 282.025,270.833 281.567 C 271.292 281.108,271.583 280.650,271.481 280.548 C 271.379 280.445,271.004 280.653,270.648 281.010 M263.400 288.649 C 262.960 289.171,262.282 289.701,261.894 289.828 C 261.506 289.954,261.292 290.226,261.420 290.432 C 261.549 290.641,261.913 290.544,262.245 290.212 C 262.572 289.885,263.210 289.358,263.664 289.041 C 264.117 288.723,264.423 288.292,264.344 288.082 C 264.265 287.872,263.840 288.127,263.400 288.649 M249.944 298.790 L 249.000 299.581 250.097 299.090 C 250.700 298.821,251.195 298.465,251.197 298.300 C 251.202 297.841,250.971 297.931,249.944 298.790 M12.131 323.780 C 12.152 324.561,12.302 325.200,12.465 325.200 C 12.766 325.200,12.595 322.862,12.270 322.537 C 12.173 322.440,12.110 322.999,12.131 323.780 M387.200 324.176 C 387.200 325.067,387.826 325.244,387.892 324.372 C 387.924 323.948,387.781 323.600,387.575 323.600 C 387.369 323.600,387.200 323.859,387.200 324.176 M358.880 326.584 C 358.589 327.223,358.570 327.658,358.825 327.815 C 359.042 327.950,359.187 327.911,359.146 327.730 C 359.106 327.548,359.214 327.077,359.386 326.683 C 359.558 326.288,359.616 325.882,359.514 325.781 C 359.413 325.680,359.128 326.041,358.880 326.584 M25.600 350.098 C 25.600 350.182,26.140 350.768,26.800 351.400 C 27.460 352.032,28.000 352.348,28.000 352.102 C 28.000 351.856,27.460 351.270,26.800 350.800 C 26.140 350.330,25.600 350.014,25.600 350.098 " stroke="none" fill="#908c8c" fill-rule="evenodd"></path><path id="path2" d="M136.435 43.758 C 136.058 44.212,136.067 44.319,136.478 44.259 C 137.030 44.178,137.387 43.653,137.090 43.357 C 136.993 43.260,136.698 43.441,136.435 43.758 M268.944 48.677 C 269.096 48.829,269.621 49.010,270.110 49.078 C 270.816 49.177,270.876 49.121,270.400 48.807 C 269.721 48.360,268.519 48.253,268.944 48.677 M271.655 51.067 C 271.899 51.360,272.250 51.600,272.436 51.600 C 272.623 51.600,272.683 51.360,272.570 51.067 C 272.458 50.773,272.106 50.533,271.789 50.533 C 271.354 50.533,271.321 50.664,271.655 51.067 M125.900 52.988 C 124.901 54.361,125.035 54.529,126.200 53.364 C 127.238 52.326,127.411 51.991,126.900 52.013 C 126.735 52.019,126.285 52.458,125.900 52.988 M273.200 52.302 C 273.200 52.553,273.650 53.244,274.200 53.838 C 274.750 54.431,275.200 54.836,275.200 54.736 C 275.200 54.637,274.750 53.945,274.200 53.200 C 273.650 52.455,273.200 52.050,273.200 52.302 M259.661 83.800 C 259.596 84.871,260.207 85.836,260.574 85.243 C 260.724 84.999,260.669 84.800,260.451 84.800 C 260.234 84.800,259.978 84.395,259.882 83.900 C 259.733 83.124,259.702 83.110,259.661 83.800 M26.162 99.262 L 25.400 100.124 26.500 99.416 C 27.634 98.686,27.849 98.400,27.262 98.400 C 27.076 98.400,26.581 98.788,26.162 99.262 M175.852 127.409 C 175.655 127.921,175.760 127.945,176.509 127.555 C 177.784 126.892,177.833 126.800,176.909 126.800 C 176.456 126.800,175.980 127.074,175.852 127.409 M221.200 126.958 C 221.200 127.045,221.905 127.183,222.766 127.265 C 223.628 127.348,224.247 127.276,224.143 127.107 C 223.953 126.800,221.200 126.660,221.200 126.958 M313.273 143.287 C 312.713 143.847,312.655 144.400,313.157 144.400 C 313.524 144.400,314.127 143.194,313.883 142.949 C 313.808 142.875,313.534 143.026,313.273 143.287 M136.562 148.500 C 135.801 149.399,135.801 149.399,136.632 148.699 C 137.090 148.314,137.585 148.119,137.732 148.266 C 137.880 148.413,138.000 148.323,138.000 148.067 C 138.000 147.335,137.394 147.517,136.562 148.500 M133.862 151.131 C 133.498 151.534,133.200 152.011,133.200 152.193 C 133.200 152.374,133.560 152.107,134.000 151.600 C 134.440 151.093,134.800 150.615,134.800 150.539 C 134.800 150.239,134.495 150.432,133.862 151.131 M197.067 150.691 C 196.869 151.013,200.634 151.100,200.952 150.781 C 201.052 150.682,200.261 150.551,199.196 150.491 C 198.130 150.432,197.172 150.522,197.067 150.691 M176.655 154.600 C 176.557 154.857,176.721 155.067,177.021 155.067 C 177.320 155.067,177.646 154.857,177.745 154.600 C 177.843 154.343,177.679 154.133,177.379 154.133 C 177.080 154.133,176.754 154.343,176.655 154.600 M335.900 157.014 C 334.901 158.350,335.031 158.723,336.046 157.433 C 336.511 156.842,336.826 156.295,336.746 156.218 C 336.666 156.141,336.285 156.500,335.900 157.014 M248.803 171.886 C 248.805 172.059,249.255 172.408,249.804 172.663 C 250.352 172.917,250.701 172.963,250.578 172.765 C 250.252 172.237,248.799 171.518,248.803 171.886 M286.126 179.969 C 286.167 180.501,286.470 181.010,286.800 181.099 C 287.196 181.206,287.246 181.149,286.946 180.930 C 286.697 180.749,286.393 180.240,286.272 179.800 C 286.099 179.169,286.068 179.205,286.126 179.969 M289.717 189.985 C 289.963 190.636,290.239 191.095,290.330 191.003 C 290.615 190.718,290.004 188.800,289.627 188.800 C 289.430 188.800,289.471 189.333,289.717 189.985 M106.178 230.435 C 106.031 230.674,106.110 231.070,106.355 231.315 C 106.682 231.642,106.800 231.526,106.800 230.880 C 106.800 229.914,106.592 229.765,106.178 230.435 M137.600 246.620 C 137.600 247.004,138.812 249.200,139.024 249.200 C 139.136 249.200,139.048 248.864,138.828 248.453 C 138.608 248.042,138.542 247.592,138.681 247.453 C 138.820 247.314,138.713 247.200,138.443 247.200 C 138.173 247.200,138.064 247.020,138.200 246.800 C 138.336 246.580,138.257 246.400,138.024 246.400 C 137.791 246.400,137.600 246.499,137.600 246.620 M113.544 257.259 C 113.727 257.754,114.089 258.200,114.348 258.249 C 114.608 258.299,114.636 258.249,114.410 258.137 C 114.185 258.025,114.000 257.689,114.000 257.390 C 114.000 257.092,113.822 256.737,113.605 256.603 C 113.355 256.449,113.332 256.688,113.544 257.259 M116.477 263.574 C 116.743 264.000,117.105 264.258,117.283 264.149 C 117.461 264.039,117.348 263.690,117.032 263.374 C 116.212 262.555,115.909 262.665,116.477 263.574 M270.648 281.010 C 270.291 281.366,270.000 281.824,270.000 282.029 C 270.000 282.233,270.375 282.025,270.833 281.567 C 271.292 281.108,271.583 280.650,271.481 280.548 C 271.379 280.445,271.004 280.653,270.648 281.010 M263.400 288.649 C 262.960 289.171,262.282 289.701,261.894 289.828 C 261.506 289.954,261.292 290.226,261.420 290.432 C 261.549 290.641,261.913 290.544,262.245 290.212 C 262.572 289.885,263.210 289.358,263.664 289.041 C 264.117 288.723,264.423 288.292,264.344 288.082 C 264.265 287.872,263.840 288.127,263.400 288.649 M249.944 298.790 L 249.000 299.581 250.097 299.090 C 250.700 298.821,251.195 298.465,251.197 298.300 C 251.202 297.841,250.971 297.931,249.944 298.790 M12.131 323.780 C 12.152 324.561,12.302 325.200,12.465 325.200 C 12.766 325.200,12.595 322.862,12.270 322.537 C 12.173 322.440,12.110 322.999,12.131 323.780 M387.200 324.176 C 387.200 325.067,387.826 325.244,387.892 324.372 C 387.924 323.948,387.781 323.600,387.575 323.600 C 387.369 323.600,387.200 323.859,387.200 324.176 M358.880 326.584 C 358.589 327.223,358.570 327.658,358.825 327.815 C 359.042 327.950,359.187 327.911,359.146 327.730 C 359.106 327.548,359.214 327.077,359.386 326.683 C 359.558 326.288,359.616 325.882,359.514 325.781 C 359.413 325.680,359.128 326.041,358.880 326.584 M25.600 350.098 C 25.600 350.182,26.140 350.768,26.800 351.400 C 27.460 352.032,28.000 352.348,28.000 352.102 C 28.000 351.856,27.460 351.270,26.800 350.800 C 26.140 350.330,25.600 350.014,25.600 350.098 " stroke="none" fill="#908c8c" fill-rule="evenodd"></path><path id="path3" d="M136.435 43.758 C 136.058 44.212,136.067 44.319,136.478 44.259 C 137.030 44.178,137.387 43.653,137.090 43.357 C 136.993 43.260,136.698 43.441,136.435 43.758 M268.944 48.677 C 269.096 48.829,269.621 49.010,270.110 49.078 C 270.816 49.177,270.876 49.121,270.400 48.807 C 269.721 48.360,268.519 48.253,268.944 48.677 M271.655 51.067 C 271.899 51.360,272.250 51.600,272.436 51.600 C 272.623 51.600,272.683 51.360,272.570 51.067 C 272.458 50.773,272.106 50.533,271.789 50.533 C 271.354 50.533,271.321 50.664,271.655 51.067 M125.900 52.988 C 124.901 54.361,125.035 54.529,126.200 53.364 C 127.238 52.326,127.411 51.991,126.900 52.013 C 126.735 52.019,126.285 52.458,125.900 52.988 M273.200 52.302 C 273.200 52.553,273.650 53.244,274.200 53.838 C 274.750 54.431,275.200 54.836,275.200 54.736 C 275.200 54.637,274.750 53.945,274.200 53.200 C 273.650 52.455,273.200 52.050,273.200 52.302 M259.661 83.800 C 259.596 84.871,260.207 85.836,260.574 85.243 C 260.724 84.999,260.669 84.800,260.451 84.800 C 260.234 84.800,259.978 84.395,259.882 83.900 C 259.733 83.124,259.702 83.110,259.661 83.800 M26.162 99.262 L 25.400 100.124 26.500 99.416 C 27.634 98.686,27.849 98.400,27.262 98.400 C 27.076 98.400,26.581 98.788,26.162 99.262 M175.852 127.409 C 175.655 127.921,175.760 127.945,176.509 127.555 C 177.784 126.892,177.833 126.800,176.909 126.800 C 176.456 126.800,175.980 127.074,175.852 127.409 M221.200 126.958 C 221.200 127.045,221.905 127.183,222.766 127.265 C 223.628 127.348,224.247 127.276,224.143 127.107 C 223.953 126.800,221.200 126.660,221.200 126.958 M313.273 143.287 C 312.713 143.847,312.655 144.400,313.157 144.400 C 313.524 144.400,314.127 143.194,313.883 142.949 C 313.808 142.875,313.534 143.026,313.273 143.287 M136.562 148.500 C 135.801 149.399,135.801 149.399,136.632 148.699 C 137.090 148.314,137.585 148.119,137.732 148.266 C 137.880 148.413,138.000 148.323,138.000 148.067 C 138.000 147.335,137.394 147.517,136.562 148.500 M133.862 151.131 C 133.498 151.534,133.200 152.011,133.200 152.193 C 133.200 152.374,133.560 152.107,134.000 151.600 C 134.440 151.093,134.800 150.615,134.800 150.539 C 134.800 150.239,134.495 150.432,133.862 151.131 M197.067 150.691 C 196.869 151.013,200.634 151.100,200.952 150.781 C 201.052 150.682,200.261 150.551,199.196 150.491 C 198.130 150.432,197.172 150.522,197.067 150.691 M176.655 154.600 C 176.557 154.857,176.721 155.067,177.021 155.067 C 177.320 155.067,177.646 154.857,177.745 154.600 C 177.843 154.343,177.679 154.133,177.379 154.133 C 177.080 154.133,176.754 154.343,176.655 154.600 M335.900 157.014 C 334.901 158.350,335.031 158.723,336.046 157.433 C 336.511 156.842,336.826 156.295,336.746 156.218 C 336.666 156.141,336.285 156.500,335.900 157.014 M248.803 171.886 C 248.805 172.059,249.255 172.408,249.804 172.663 C 250.352 172.917,250.701 172.963,250.578 172.765 C 250.252 172.237,248.799 171.518,248.803 171.886 M286.126 179.969 C 286.167 180.501,286.470 181.010,286.800 181.099 C 287.196 181.206,287.246 181.149,286.946 180.930 C 286.697 180.749,286.393 180.240,286.272 179.800 C 286.099 179.169,286.068 179.205,286.126 179.969 M289.717 189.985 C 289.963 190.636,290.239 191.095,290.330 191.003 C 290.615 190.718,290.004 188.800,289.627 188.800 C 289.430 188.800,289.471 189.333,289.717 189.985 M106.178 230.435 C 106.031 230.674,106.110 231.070,106.355 231.315 C 106.682 231.642,106.800 231.526,106.800 230.880 C 106.800 229.914,106.592 229.765,106.178 230.435 M137.600 246.620 C 137.600 247.004,138.812 249.200,139.024 249.200 C 139.136 249.200,139.048 248.864,138.828 248.453 C 138.608 248.042,138.542 247.592,138.681 247.453 C 138.820 247.314,138.713 247.200,138.443 247.200 C 138.173 247.200,138.064 247.020,138.200 246.800 C 138.336 246.580,138.257 246.400,138.024 246.400 C 137.791 246.400,137.600 246.499,137.600 246.620 M113.544 257.259 C 113.727 257.754,114.089 258.200,114.348 258.249 C 114.608 258.299,114.636 258.249,114.410 258.137 C 114.185 258.025,114.000 257.689,114.000 257.390 C 114.000 257.092,113.822 256.737,113.605 256.603 C 113.355 256.449,113.332 256.688,113.544 257.259 M116.477 263.574 C 116.743 264.000,117.105 264.258,117.283 264.149 C 117.461 264.039,117.348 263.690,117.032 263.374 C 116.212 262.555,115.909 262.665,116.477 263.574 M270.648 281.010 C 270.291 281.366,270.000 281.824,270.000 282.029 C 270.000 282.233,270.375 282.025,270.833 281.567 C 271.292 281.108,271.583 280.650,271.481 280.548 C 271.379 280.445,271.004 280.653,270.648 281.010 M263.400 288.649 C 262.960 289.171,262.282 289.701,261.894 289.828 C 261.506 289.954,261.292 290.226,261.420 290.432 C 261.549 290.641,261.913 290.544,262.245 290.212 C 262.572 289.885,263.210 289.358,263.664 289.041 C 264.117 288.723,264.423 288.292,264.344 288.082 C 264.265 287.872,263.840 288.127,263.400 288.649 M249.944 298.790 L 249.000 299.581 250.097 299.090 C 250.700 298.821,251.195 298.465,251.197 298.300 C 251.202 297.841,250.971 297.931,249.944 298.790 M12.131 323.780 C 12.152 324.561,12.302 325.200,12.465 325.200 C 12.766 325.200,12.595 322.862,12.270 322.537 C 12.173 322.440,12.110 322.999,12.131 323.780 M387.200 324.176 C 387.200 325.067,387.826 325.244,387.892 324.372 C 387.924 323.948,387.781 323.600,387.575 323.600 C 387.369 323.600,387.200 323.859,387.200 324.176 M358.880 326.584 C 358.589 327.223,358.570 327.658,358.825 327.815 C 359.042 327.950,359.187 327.911,359.146 327.730 C 359.106 327.548,359.214 327.077,359.386 326.683 C 359.558 326.288,359.616 325.882,359.514 325.781 C 359.413 325.680,359.128 326.041,358.880 326.584 M25.600 350.098 C 25.600 350.182,26.140 350.768,26.800 351.400 C 27.460 352.032,28.000 352.348,28.000 352.102 C 28.000 351.856,27.460 351.270,26.800 350.800 C 26.140 350.330,25.600 350.014,25.600 350.098 " stroke="none" fill="#908c8c" fill-rule="evenodd"></path><path id="path4" d="M136.435 43.758 C 136.058 44.212,136.067 44.319,136.478 44.259 C 137.030 44.178,137.387 43.653,137.090 43.357 C 136.993 43.260,136.698 43.441,136.435 43.758 M268.944 48.677 C 269.096 48.829,269.621 49.010,270.110 49.078 C 270.816 49.177,270.876 49.121,270.400 48.807 C 269.721 48.360,268.519 48.253,268.944 48.677 M271.655 51.067 C 271.899 51.360,272.250 51.600,272.436 51.600 C 272.623 51.600,272.683 51.360,272.570 51.067 C 272.458 50.773,272.106 50.533,271.789 50.533 C 271.354 50.533,271.321 50.664,271.655 51.067 M125.900 52.988 C 124.901 54.361,125.035 54.529,126.200 53.364 C 127.238 52.326,127.411 51.991,126.900 52.013 C 126.735 52.019,126.285 52.458,125.900 52.988 M273.200 52.302 C 273.200 52.553,273.650 53.244,274.200 53.838 C 274.750 54.431,275.200 54.836,275.200 54.736 C 275.200 54.637,274.750 53.945,274.200 53.200 C 273.650 52.455,273.200 52.050,273.200 52.302 M259.661 83.800 C 259.596 84.871,260.207 85.836,260.574 85.243 C 260.724 84.999,260.669 84.800,260.451 84.800 C 260.234 84.800,259.978 84.395,259.882 83.900 C 259.733 83.124,259.702 83.110,259.661 83.800 M26.162 99.262 L 25.400 100.124 26.500 99.416 C 27.634 98.686,27.849 98.400,27.262 98.400 C 27.076 98.400,26.581 98.788,26.162 99.262 M175.852 127.409 C 175.655 127.921,175.760 127.945,176.509 127.555 C 177.784 126.892,177.833 126.800,176.909 126.800 C 176.456 126.800,175.980 127.074,175.852 127.409 M221.200 126.958 C 221.200 127.045,221.905 127.183,222.766 127.265 C 223.628 127.348,224.247 127.276,224.143 127.107 C 223.953 126.800,221.200 126.660,221.200 126.958 M313.273 143.287 C 312.713 143.847,312.655 144.400,313.157 144.400 C 313.524 144.400,314.127 143.194,313.883 142.949 C 313.808 142.875,313.534 143.026,313.273 143.287 M136.562 148.500 C 135.801 149.399,135.801 149.399,136.632 148.699 C 137.090 148.314,137.585 148.119,137.732 148.266 C 137.880 148.413,138.000 148.323,138.000 148.067 C 138.000 147.335,137.394 147.517,136.562 148.500 M133.862 151.131 C 133.498 151.534,133.200 152.011,133.200 152.193 C 133.200 152.374,133.560 152.107,134.000 151.600 C 134.440 151.093,134.800 150.615,134.800 150.539 C 134.800 150.239,134.495 150.432,133.862 151.131 M197.067 150.691 C 196.869 151.013,200.634 151.100,200.952 150.781 C 201.052 150.682,200.261 150.551,199.196 150.491 C 198.130 150.432,197.172 150.522,197.067 150.691 M176.655 154.600 C 176.557 154.857,176.721 155.067,177.021 155.067 C 177.320 155.067,177.646 154.857,177.745 154.600 C 177.843 154.343,177.679 154.133,177.379 154.133 C 177.080 154.133,176.754 154.343,176.655 154.600 M335.900 157.014 C 334.901 158.350,335.031 158.723,336.046 157.433 C 336.511 156.842,336.826 156.295,336.746 156.218 C 336.666 156.141,336.285 156.500,335.900 157.014 M248.803 171.886 C 248.805 172.059,249.255 172.408,249.804 172.663 C 250.352 172.917,250.701 172.963,250.578 172.765 C 250.252 172.237,248.799 171.518,248.803 171.886 M286.126 179.969 C 286.167 180.501,286.470 181.010,286.800 181.099 C 287.196 181.206,287.246 181.149,286.946 180.930 C 286.697 180.749,286.393 180.240,286.272 179.800 C 286.099 179.169,286.068 179.205,286.126 179.969 M289.717 189.985 C 289.963 190.636,290.239 191.095,290.330 191.003 C 290.615 190.718,290.004 188.800,289.627 188.800 C 289.430 188.800,289.471 189.333,289.717 189.985 M106.178 230.435 C 106.031 230.674,106.110 231.070,106.355 231.315 C 106.682 231.642,106.800 231.526,106.800 230.880 C 106.800 229.914,106.592 229.765,106.178 230.435 M137.600 246.620 C 137.600 247.004,138.812 249.200,139.024 249.200 C 139.136 249.200,139.048 248.864,138.828 248.453 C 138.608 248.042,138.542 247.592,138.681 247.453 C 138.820 247.314,138.713 247.200,138.443 247.200 C 138.173 247.200,138.064 247.020,138.200 246.800 C 138.336 246.580,138.257 246.400,138.024 246.400 C 137.791 246.400,137.600 246.499,137.600 246.620 M113.544 257.259 C 113.727 257.754,114.089 258.200,114.348 258.249 C 114.608 258.299,114.636 258.249,114.410 258.137 C 114.185 258.025,114.000 257.689,114.000 257.390 C 114.000 257.092,113.822 256.737,113.605 256.603 C 113.355 256.449,113.332 256.688,113.544 257.259 M116.477 263.574 C 116.743 264.000,117.105 264.258,117.283 264.149 C 117.461 264.039,117.348 263.690,117.032 263.374 C 116.212 262.555,115.909 262.665,116.477 263.574 M270.648 281.010 C 270.291 281.366,270.000 281.824,270.000 282.029 C 270.000 282.233,270.375 282.025,270.833 281.567 C 271.292 281.108,271.583 280.650,271.481 280.548 C 271.379 280.445,271.004 280.653,270.648 281.010 M263.400 288.649 C 262.960 289.171,262.282 289.701,261.894 289.828 C 261.506 289.954,261.292 290.226,261.420 290.432 C 261.549 290.641,261.913 290.544,262.245 290.212 C 262.572 289.885,263.210 289.358,263.664 289.041 C 264.117 288.723,264.423 288.292,264.344 288.082 C 264.265 287.872,263.840 288.127,263.400 288.649 M249.944 298.790 L 249.000 299.581 250.097 299.090 C 250.700 298.821,251.195 298.465,251.197 298.300 C 251.202 297.841,250.971 297.931,249.944 298.790 M12.131 323.780 C 12.152 324.561,12.302 325.200,12.465 325.200 C 12.766 325.200,12.595 322.862,12.270 322.537 C 12.173 322.440,12.110 322.999,12.131 323.780 M387.200 324.176 C 387.200 325.067,387.826 325.244,387.892 324.372 C 387.924 323.948,387.781 323.600,387.575 323.600 C 387.369 323.600,387.200 323.859,387.200 324.176 M358.880 326.584 C 358.589 327.223,358.570 327.658,358.825 327.815 C 359.042 327.950,359.187 327.911,359.146 327.730 C 359.106 327.548,359.214 327.077,359.386 326.683 C 359.558 326.288,359.616 325.882,359.514 325.781 C 359.413 325.680,359.128 326.041,358.880 326.584 M25.600 350.098 C 25.600 350.182,26.140 350.768,26.800 351.400 C 27.460 352.032,28.000 352.348,28.000 352.102 C 28.000 351.856,27.460 351.270,26.800 350.800 C 26.140 350.330,25.600 350.014,25.600 350.098 " stroke="none" fill="#908c8c" fill-rule="evenodd"></path></g></svg>